<?xml version="1.0" encoding="UTF-8"?><svg xmlns="http://www.w3.org/2000/svg" viewBox="0 0 36 36"><defs><style>.cls-1{fill:#fad3d4;}.cls-2{fill:#fce1e2;}.cls-3{fill:#fbdfdf;}.cls-4{fill:#fbdbdb;}.cls-5{fill:#fce6e7;}.cls-6{fill:#fce4e5;}.cls-7{fill:#fde8e9;}.cls-8{fill:#fdebeb;}.cls-9{fill:#5e3c3e;}.cls-10{mix-blend-mode:multiply;}.cls-11{opacity:.8;}.cls-12{isolation:isolate;}</style></defs><g class="cls-12"><g id="Layer_1"><g><g class="cls-10"><g class="cls-11"><g class="cls-11"><path class="cls-1" d="M21.41,19.56c.61,.7,.34,.12,.23-.25-.03,0-.06,0-.09,0-.04,.08-.09,.17-.13,.25Z"/><path class="cls-1" d="M21.54,19.31s.07,0,.09,0c-.01-.05-.02-.09-.03-.13l-.06,.13Z"/><path class="cls-1" d="M21.1,19.2c.12,.15,.22,.26,.31,.36,.05-.08,.09-.17,.13-.25-.12,0-.27-.04-.44-.11Z"/><path class="cls-1" d="M21.61,19.18s.04-.09,.07-.14c-.07-.02-.08,.04-.07,.14Z"/><path class="cls-8" d="M19.68,11.77c-1.07,.31-2.09,.65-3.04,1.05,.54,.22,1.07,.43,1.47,.52,1.24,.33,1.25-.84,1.57-1.58Z"/><path class="cls-5" d="M15.33,13.54c-.29,.17-.57,.33-.83,.52,.38-.02,.7-.14,.83-.52Z"/><path class="cls-8" d="M19.77,11.94c-.32,.76-.31,1.94-1.55,1.62-.4-.09-.93-.3-1.46-.52-.75,.32-1.45,.7-2.1,1.11-.12,.39-.43,.53-.79,.56-1.19,.89-2.12,2.04-2.84,3.46-.74,1.4-1.18,3.07-1.83,5.08-.04,.11-.16,.53-.32,.97-.14,.38-.35,.79-.42,.95-.08,.15-.17,.29-.27,.42v.03c.25-.29,.48-.52,.69-.85,.13-.15,.23-.49,.33-.68,.24-.46,.45-.77,.66-1.22,.21-.42,.39-.86,.51-1.57,0-.54,.68-.02,.73-.52,.4-1.35,1.61-1.04,2.12-2.18,.35-1,.27-2.07,1.06-2.43,.13-.15,.1-.66,.23-.81,1.08-.63,2.3-1.14,3.76-1.42,.24-.18,1.35,.66,1.35,.2-.13-.76-.01-1.23,.12-1.68,.09-.05,.76,.56,.92,.44,.74-.33,.84-1.25,1.47-1.55-.08-.03-.15-.05-.23-.08-.73,.22-1.46,.45-2.15,.66Z"/><g><path class="cls-8" d="M24.01,10.47c-.06,.09-.11,.18-.17,.26,.77-.09,1.31-.58,1.88-.93-.55,.25-1.12,.47-1.71,.67Z"/><path class="cls-8" d="M22.99,10.92h.04c-.36,.13-.73,.24-1.1,.36,.07,.02,.15,.05,.23,.08,.18-.1,.4-.15,.67-.16,.07,0,.15,0,.21,0,.04-.07,.07-.15,.1-.23l.08,.02c.31,.09,.49-.05,.63-.25-.06,0-.13,.01-.2,.02-.25,.02-.47,.08-.65,.17Z"/></g><path class="cls-3" d="M26.27,14.75c-.56,.44,.1,1.75-.4,2.29-.38,.38-.54,.98-.65,1.65,.74-.98,1.19-2.17,1.29-3.68-.07-.05-.14-.12-.23-.26Z"/><path class="cls-2" d="M25.88,10.4c-.03,.24-.06,.54-.22,.86-.27,.54-.82,.66-1.11,1.06-1.06,.82-.38,4.02-2.65,3.67-2.16-.45-2.38,1.66-3.45,2.87-.22,.23-.05,1.14-.28,1.37-.76,.75-1.45,1.42-2.17,2.03-.57,.48-1.58-.92-1.99-.07-.08,.07-.56-.35-.63-.28-.36,.49-.77,.89-1.18,1.3-.43,.37-.85,.74-1.3,1.06-.9,.65-1.77,1.16-2.78,1.64-.02,.08-.02,.14,0,.2,1.44-.17,2.99-.41,4.5-.78,2.14-.37,3.57-2.17,5.57-3.05,.95-.42,1.92-.97,2.52-1.89-.08-.1-.19-.23-.31-.38,.18,.08,.32,.12,.45,.13l.07-.13c-.02-.1,0-.16,.07-.14-.03,.05-.05,.09-.07,.14,0,.04,.02,.08,.03,.13,.97-.08,.34-2.2,1.02-2.11,2.22,.1,1.8-3.37,2.91-4.05,.87-1.01,.87-2.57,1.04-3.64-.02,.02-.05,.05-.07,.06Z"/><path class="cls-6" d="M25.47,10.11c-.05,0-.11,0-.15,0-.45,.71-1.06,1.82-1.98,2.5-.06,.07-.5-.11-.82-.15-.56,.11,.1,1.27-.34,1.39-4.2,.53-5.49,4.49-7.75,7.5-.14,.14-.94-1.46-1.31-1.52-.65,.35-.94,1.15-1.73,.95-.18-.17,.06,.87,0,1.32-.39,1.45-1.37,1.27-1.92,2.45-.35,.63-.81,.84-1.31,1.28,0,.03-.02,.06-.02,.08,1.01-.48,1.88-.99,2.78-1.64,.44-.32,.87-.69,1.3-1.06,.41-.41,.82-.81,1.18-1.3,.07-.07,.55,.35,.63,.28,.31-.66,1.27,.68,1.99,.07,.74-.62,1.4-1.27,2.17-2.03,.22-.23,.06-1.14,.28-1.37,1.07-1.22,1.29-3.32,3.45-2.87,2.27,.36,1.59-2.85,2.65-3.67,.29-.4,.84-.53,1.11-1.06,.16-.31,.19-.62,.22-.86-.18,.11-.41,0-.58-.16,.04-.03,.11-.08,.17-.13Z"/><path class="cls-7" d="M26.01,9.97c-.33,.03-.92,.01-.37,.06-.06,.05-.13,.1-.17,.13,.14,.14,.35,.23,.5,.09,.01-.11,.03-.2,.04-.28Z"/><path class="cls-7" d="M25.21,10.09c-.1,.05-.2,.09-.3,.14-.5,.44-1.06,.92-1.88,.97-.12,.23-.29,.38-.64,.25-.09-.03-.16-.06-.24-.09-.64,.3-.74,1.22-1.47,1.55-.16,.12-.83-.49-.92-.44-.13,.44-.25,.91-.12,1.68,0,.46-1.12-.38-1.35-.2-1.46,.28-2.67,.79-3.76,1.42-.13,.15-.1,.66-.23,.81-.79,.36-.71,1.44-1.06,2.43-.51,1.13-1.72,.83-2.12,2.18-.04,.51-.72-.02-.73,.52-.12,.71-.3,1.15-.51,1.57-.21,.44-.42,.76-.66,1.22-.11,.19-.21,.53-.33,.68-.21,.33-.44,.56-.69,.85v.12s-.02,.07-.02,.07c.5-.44,.96-.64,1.31-1.28,.55-1.19,1.53-1,1.92-2.45,.07-.45-.18-1.49,0-1.32,.79,.2,1.07-.6,1.73-.95,.37,.06,1.17,1.67,1.31,1.52,2.26-3.02,3.54-6.97,7.75-7.5,.44-.12-.22-1.27,.34-1.39,.31,.05,.75,.23,.82,.15,.91-.68,1.53-1.79,1.98-2.5-.06,0-.1,0-.1,0Z"/><path class="cls-3" d="M20.03,23.72c.39-.31,.76-.64,1.18-.96,.02-.02,.08-.07,.17-.14-.5,.3-1.04,.55-1.35,1.11Z"/><path class="cls-3" d="M22.03,22.08c.42-.36,.88-.8,1.11-1.06-.59-.13-1.09-.14-1.36,.21,0,0,.31,.73,.26,.84Z"/><g><path class="cls-4" d="M26.51,13.93c-.02-1.06-.17-2.22-.26-3.29-.02,.96,0,1.97,.26,3.29Z"/><path class="cls-3" d="M25.95,10.34c-.17,1.07-.18,2.62-1.04,3.64-1.1,.68-.69,4.15-2.91,4.05-.67-.1-.05,2.03-1.02,2.11,.11,.38,.38,.97-.24,.24-.6,.92-1.57,1.47-2.52,1.89-2,.88-3.43,2.68-5.57,3.05-1.51,.37-3.07,.61-4.5,.78,.06,.14,.3,.46,.89,.71,.6,.3,1.15,.43,1.78,.58,.57,.1,1.14,.15,1.72,.16,.53-.02,1.07-.08,1.59-.19,.5-.12,.96-.29,1.42-.51,.53-.59,1.03-1.13,1.77-1.33-.28,.26-.53,.57-.76,.91,.79-.45,1.49-1.02,2.22-1.62-.03,0-.06,0-.09,.02,.18-.13,.35-.27,.54-.41,.32-.53,.9-.75,1.42-1.02,.16-.12,.42-.3,.69-.5,.07-.1,.59-1.14,1.18-.98,.08-.08,.14-.14,.16-.17,.75-.69,1.49-1.3,2.12-1.99,.13-.66,.33-1.24,.77-1.57,.64-.42,.73-1.97,.81-1.91,.04-.34,.07-.7,.08-1.07-.28-1.36-.31-2.43-.2-3.35-.02-.3-.05-.59-.07-.86-.03-.5-.06-.73-.11-.82-.03,.06-.06,.11-.1,.14Z"/></g></g></g></g><g class="cls-10"><g class="cls-11"><g class="cls-11"><path class="cls-1" d="M20.73,19.17c.61,.7,.34,.12,.23-.25-.03,0-.06,0-.09,0-.04,.08-.09,.17-.13,.25Z"/><path class="cls-1" d="M20.86,18.92s.07,0,.09,0c-.01-.05-.02-.09-.03-.13l-.06,.13Z"/><path class="cls-1" d="M20.42,18.8c.12,.15,.22,.26,.31,.36,.05-.08,.09-.17,.13-.25-.12,0-.27-.04-.44-.11Z"/><path class="cls-1" d="M20.92,18.79s.04-.09,.07-.14c-.07-.02-.08,.04-.07,.14Z"/><path class="cls-8" d="M19,11.38c-1.07,.31-2.09,.65-3.04,1.05,.54,.22,1.07,.43,1.47,.52,1.24,.33,1.25-.84,1.57-1.58Z"/><path class="cls-5" d="M14.65,13.15c-.29,.17-.57,.33-.83,.52,.38-.02,.7-.14,.83-.52Z"/><path class="cls-8" d="M19.09,11.55c-.32,.76-.31,1.94-1.55,1.62-.4-.09-.93-.3-1.46-.52-.75,.32-1.45,.7-2.1,1.11-.12,.39-.43,.53-.79,.56-1.19,.89-2.12,2.04-2.84,3.46-.74,1.4-1.18,3.07-1.83,5.08-.04,.11-.16,.53-.32,.97-.14,.38-.35,.79-.42,.95-.08,.15-.17,.29-.27,.42v.03c.25-.29,.48-.52,.69-.85,.13-.15,.23-.49,.33-.68,.24-.46,.45-.77,.66-1.22,.21-.42,.39-.86,.51-1.57,0-.54,.68-.02,.73-.52,.4-1.35,1.61-1.04,2.12-2.18,.35-1,.27-2.07,1.06-2.43,.13-.15,.1-.66,.23-.81,1.08-.63,2.3-1.14,3.76-1.42,.24-.18,1.35,.66,1.35,.2-.13-.76-.01-1.23,.12-1.68,.09-.05,.76,.56,.92,.44,.74-.33,.84-1.25,1.47-1.55-.08-.03-.15-.05-.23-.08-.73,.22-1.46,.45-2.15,.66Z"/><g><path class="cls-8" d="M23.33,10.08c-.06,.09-.11,.18-.17,.26,.77-.09,1.31-.58,1.88-.93-.55,.25-1.12,.47-1.71,.67Z"/><path class="cls-8" d="M22.31,10.53h.04c-.36,.13-.73,.24-1.1,.36,.07,.02,.15,.05,.23,.08,.18-.1,.4-.15,.67-.16,.07,0,.15,0,.21,0,.04-.07,.07-.15,.1-.23l.08,.02c.31,.09,.48-.05,.63-.25-.06,0-.13,.01-.2,.02-.25,.02-.47,.08-.65,.17Z"/></g><path class="cls-3" d="M25.58,14.36c-.56,.44,.1,1.75-.4,2.29-.38,.38-.54,.98-.65,1.65,.74-.98,1.19-2.17,1.29-3.68-.07-.05-.14-.12-.23-.26Z"/><path class="cls-2" d="M25.19,10.01c-.03,.24-.06,.54-.22,.86-.27,.54-.82,.66-1.11,1.06-1.06,.82-.38,4.02-2.65,3.67-2.16-.45-2.38,1.66-3.45,2.87-.22,.23-.05,1.14-.28,1.37-.76,.75-1.45,1.42-2.17,2.03-.57,.48-1.58-.92-1.99-.07-.08,.07-.56-.35-.63-.28-.36,.49-.77,.89-1.18,1.3-.43,.37-.85,.74-1.3,1.06-.9,.65-1.77,1.16-2.78,1.64-.02,.08-.02,.14,0,.2,1.44-.17,2.99-.41,4.5-.78,2.14-.37,3.57-2.17,5.57-3.05,.95-.42,1.92-.97,2.52-1.89-.08-.1-.19-.23-.31-.38,.18,.08,.32,.12,.45,.13l.07-.13c-.02-.1,0-.16,.07-.14-.03,.05-.05,.09-.07,.14,0,.04,.02,.08,.03,.13,.97-.08,.34-2.2,1.02-2.11,2.22,.1,1.8-3.37,2.91-4.05,.87-1.01,.87-2.57,1.04-3.64-.02,.02-.05,.05-.07,.06Z"/><path class="cls-6" d="M24.78,9.71c-.05,0-.11,0-.15,0-.45,.71-1.06,1.82-1.98,2.5-.06,.07-.5-.11-.82-.15-.56,.11,.1,1.27-.34,1.39-4.2,.53-5.49,4.49-7.75,7.5-.14,.14-.94-1.46-1.31-1.52-.65,.35-.94,1.15-1.73,.95-.18-.17,.06,.87,0,1.32-.39,1.45-1.37,1.27-1.92,2.45-.35,.63-.81,.84-1.31,1.28,0,.03-.02,.06-.02,.08,1.01-.48,1.88-.99,2.78-1.64,.44-.32,.87-.69,1.3-1.06,.41-.41,.82-.81,1.18-1.3,.07-.07,.55,.35,.63,.28,.31-.66,1.27,.68,1.99,.07,.74-.62,1.4-1.27,2.17-2.03,.22-.23,.06-1.14,.28-1.37,1.07-1.22,1.29-3.32,3.45-2.87,2.27,.36,1.59-2.85,2.65-3.67,.29-.4,.84-.52,1.11-1.06,.16-.31,.19-.62,.22-.86-.18,.11-.41,0-.58-.16,.04-.03,.11-.08,.17-.13Z"/><path class="cls-7" d="M25.32,9.58c-.33,.03-.92,.01-.37,.06-.06,.05-.13,.1-.17,.13,.14,.14,.35,.23,.5,.09,.01-.11,.03-.2,.04-.28Z"/><path class="cls-7" d="M24.53,9.7c-.1,.05-.2,.09-.3,.14-.5,.44-1.06,.92-1.88,.97-.12,.23-.29,.38-.64,.25-.09-.03-.16-.06-.24-.09-.64,.3-.74,1.22-1.47,1.55-.16,.12-.83-.49-.92-.44-.13,.44-.25,.91-.12,1.68,0,.46-1.12-.38-1.35-.2-1.46,.28-2.67,.79-3.76,1.42-.13,.15-.1,.66-.23,.81-.79,.36-.71,1.44-1.06,2.43-.51,1.13-1.72,.83-2.12,2.18-.04,.51-.72-.02-.73,.52-.12,.71-.3,1.15-.51,1.57-.21,.44-.42,.76-.66,1.22-.11,.19-.21,.53-.33,.68-.21,.33-.44,.56-.69,.85v.12s-.02,.07-.02,.07c.5-.44,.96-.64,1.31-1.28,.55-1.19,1.53-1,1.92-2.45,.07-.45-.18-1.49,0-1.32,.79,.2,1.07-.6,1.73-.95,.37,.06,1.17,1.67,1.31,1.52,2.26-3.02,3.54-6.97,7.75-7.5,.44-.12-.22-1.27,.34-1.39,.31,.05,.75,.23,.82,.15,.91-.68,1.53-1.79,1.98-2.5-.06,0-.1,0-.1,0Z"/><path class="cls-3" d="M19.34,23.33c.39-.31,.76-.64,1.18-.96,.02-.02,.08-.07,.17-.14-.5,.3-1.04,.55-1.35,1.11Z"/><path class="cls-3" d="M21.35,21.69c.42-.36,.88-.8,1.11-1.06-.59-.13-1.09-.14-1.36,.21,0,0,.31,.73,.26,.84Z"/><g><path class="cls-4" d="M25.83,13.54c-.02-1.06-.17-2.22-.26-3.29-.02,.96,0,1.97,.26,3.29Z"/><path class="cls-3" d="M25.27,9.94c-.17,1.07-.18,2.62-1.04,3.64-1.1,.68-.69,4.15-2.91,4.05-.67-.1-.05,2.03-1.02,2.11,.11,.38,.38,.97-.24,.24-.6,.92-1.57,1.47-2.52,1.89-2,.88-3.43,2.68-5.57,3.05-1.52,.37-3.07,.61-4.5,.78,.06,.14,.3,.46,.89,.71,.6,.3,1.15,.43,1.78,.58,.57,.1,1.14,.15,1.72,.16,.53-.02,1.07-.08,1.59-.19,.5-.12,.96-.29,1.42-.51,.53-.59,1.03-1.13,1.77-1.33-.28,.26-.53,.57-.76,.91,.79-.45,1.49-1.02,2.22-1.62-.03,0-.06,0-.09,.02,.18-.13,.35-.27,.54-.41,.32-.53,.9-.75,1.42-1.02,.16-.12,.42-.3,.69-.5,.07-.1,.59-1.14,1.18-.98,.08-.08,.14-.14,.16-.17,.75-.69,1.49-1.3,2.12-1.99,.13-.66,.33-1.24,.77-1.57,.64-.42,.73-1.97,.81-1.91,.04-.34,.07-.7,.08-1.07-.28-1.36-.31-2.43-.21-3.35-.02-.3-.05-.59-.07-.86-.03-.5-.06-.73-.11-.82-.03,.06-.06,.11-.1,.14Z"/></g></g></g></g><g><path class="cls-9" d="M14.8,27.37c-.29,0-.59-.04-.88-.13-.9-.26-1.75-.75-2.51-1.17-.99-.56-1.85-1.04-2.45-.88-.09,.02-.19-.01-.25-.1-.05-.08-.05-.19,.02-.27,0-.01,.89-1.12,.75-2.48-.03-.29-.1-.57-.16-.88-.28-1.24-.6-2.65,1.11-5.26,.05-.08,.15-.12,.24-.1,.04,0,.7,.18,1.02,1.13,.42-1.37,1.41-3.5,3.69-4.84,.08-.05,.18-.04,.26,.02,.07,.06,.1,.15,.08,.24,0,.01-.28,.95-.37,1.75,.74-.93,2.29-2.81,3.37-3.65,.06-.05,.14-.06,.22-.03,.07,.03,.13,.09,.14,.17,0,.02,.35,1.68,.77,2.55,.59-.58,2.29-2.33,3.24-4.14,.04-.08,.12-.13,.22-.12,.09,0,.17,.06,.2,.15,.06,.16,1.34,3.75-.33,6.64,.74-.23,2.05-.73,2.76-1.62,.07-.08,.18-.11,.27-.06,.09,.04,.15,.15,.13,.25-.01,.05-1.04,5.06-5.14,6.29,.71,.11,1.52,.16,1.92-.01,.08-.04,.18-.02,.25,.04,.07,.06,.09,.16,.06,.24-.01,.04-1.4,3.67-6.89,3.67-.07,0-.14,0-.21,0,.67,.31,1.43,.63,1.78,.65,.09,0,.17,.06,.2,.15,.03,.08,0,.18-.06,.24-.08,.07-1.63,1.54-3.43,1.55Zm-5.46-2.66c.67,.06,1.43,.48,2.28,.96,.74,.41,1.57,.88,2.42,1.13,1.42,.42,2.88-.52,3.53-1.02-.9-.27-2.29-1-2.47-1.09-.1-.05-.14-.16-.11-.27,.03-.1,.13-.17,.24-.16,5.01,.49,6.95-1.91,7.54-2.89-1.04,.12-2.61-.25-2.82-.3-.11-.03-.18-.13-.17-.24,0-.11,.09-.2,.2-.21,3.63-.39,5.16-3.8,5.67-5.37-1.21,.95-2.88,1.31-2.96,1.33-.09,.02-.19-.02-.24-.1-.05-.08-.05-.18,0-.26,1.58-2.18,1.05-5.07,.75-6.22-1.24,2.09-3.19,3.91-3.28,3.99-.05,.05-.12,.07-.18,.06-.07,0-.13-.05-.16-.1-.4-.62-.74-1.94-.89-2.58-1.39,1.22-3.41,3.85-3.43,3.88-.06,.07-.15,.11-.24,.08-.09-.03-.15-.1-.16-.2-.06-.58,.12-1.45,.25-2.02-2.86,2.01-3.26,5.45-3.27,5.49-.01,.12-.1,.2-.24,.2-.12,0-.22-.11-.21-.23,.04-1.34-.44-1.8-.69-1.94-1.49,2.35-1.2,3.62-.94,4.75,.07,.32,.14,.62,.17,.93,.11,1.04-.29,1.92-.58,2.41Z"/><path class="cls-9" d="M22.9,17.14c-1.65,.45-2.72,.1-3.17-.11,.73-.77,1.43-1.57,2.11-2.39,.08-.09,.06-.23-.03-.31-.09-.08-.23-.07-.31,.03h0c-1.21,1.45-2.5,2.84-3.93,4.08-.07,.06-.14,.11-.21,.17-.2-1.66,.34-2.9,.35-2.91,.05-.11,0-.25-.11-.3-.11-.05-.25,0-.3,.11-.03,.06-.66,1.5-.34,3.44-.99,.83-2.02,1.63-3.08,2.37-.22-.65-.59-2.12,.1-3.12,.07-.1,.05-.25-.06-.32-.1-.07-.25-.05-.32,.06-.88,1.27-.35,3.03-.12,3.66-.14,.1-.27,.2-.41,.3-1.57,1.05-3.2,2.03-4.87,2.91-1.67,.88-3.39,1.7-5.14,2.38h-.01s0,0,0,0c-.17,.07-.26,.27-.19,.44,.07,.17,.27,.26,.44,.19,1.79-.72,3.5-1.56,5.19-2.47,1.68-.91,3.31-1.92,4.89-3,.7-.47,1.38-.98,2.04-1.5,.02,.02,.02,.05,.04,.07,.44,.56,1.62,.92,3.5,1.04,0,0,.01,0,.02,0,.12,0,.22-.09,.23-.21,0-.13-.09-.23-.21-.24-2.52-.17-3.09-.71-3.21-.94,.72-.57,1.42-1.16,2.11-1.77,.52-.46,1.02-.95,1.5-1.44,.29,.16,.94,.44,1.94,.44,.48,0,1.04-.07,1.68-.24,.12-.03,.19-.16,.16-.28-.03-.12-.16-.19-.28-.16Z"/><path class="cls-9" d="M18.16,33c-3.57,0-7.03-1.28-9.74-3.59-.13-.11-.14-.3-.03-.42,.11-.13,.3-.14,.42-.03,2.6,2.22,5.92,3.45,9.35,3.45,7.94,0,14.4-6.46,14.4-14.4S26.1,3.6,18.16,3.6,3.76,10.06,3.76,18c0,1.76,.31,3.48,.93,5.11,.06,.16-.02,.33-.17,.39-.16,.06-.33-.02-.39-.17-.64-1.7-.97-3.49-.97-5.32C3.16,9.73,9.89,3,18.16,3s15,6.73,15,15-6.73,15-15,15Z"/></g></g></g></g></svg>