<?xml version="1.0" encoding="UTF-8"?><svg xmlns="http://www.w3.org/2000/svg" viewBox="0 0 81.15 24.17"><defs><style>.cls-1{fill:#fad3d4;}.cls-2{fill:#fce1e2;}.cls-3{fill:#fbdfdf;}.cls-4{fill:#fbdbdb;}.cls-5{fill:#fce6e7;}.cls-6{fill:#fce4e5;}.cls-7{fill:#fde8e9;}.cls-8{fill:#fdebeb;}.cls-9{fill:#633;}.cls-10{fill:#5e3c3e;}.cls-11{mix-blend-mode:multiply;}.cls-12{opacity:.8;}.cls-13{isolation:isolate;}</style></defs><g class="cls-13"><g id="Layer_1"><g><g class="cls-11"><g class="cls-12"><g class="cls-12"><path class="cls-1" d="M15.29,13.1c.4,.45,.22,.08,.15-.16-.02,0-.04,0-.06,0-.03,.05-.06,.11-.09,.16Z"/><path class="cls-1" d="M15.38,12.94s.04,0,.06,0c0-.03-.02-.06-.02-.08l-.04,.08Z"/><path class="cls-1" d="M15.09,12.87c.08,.09,.15,.17,.2,.24,.03-.05,.06-.11,.09-.16-.08,0-.17-.02-.29-.07Z"/><path class="cls-1" d="M15.42,12.86s.03-.06,.04-.09c-.05-.01-.05,.03-.04,.09Z"/><path class="cls-8" d="M14.17,8.03c-.69,.2-1.36,.42-1.98,.69,.35,.14,.69,.28,.95,.34,.81,.21,.81-.54,1.02-1.03Z"/><path class="cls-5" d="M11.34,9.19c-.19,.11-.37,.22-.54,.34,.25-.01,.46-.09,.54-.34Z"/><path class="cls-8" d="M14.23,8.15c-.21,.49-.2,1.26-1.01,1.05-.26-.06-.6-.2-.95-.34-.49,.2-.94,.46-1.37,.72-.08,.25-.28,.34-.51,.37-.77,.58-1.38,1.33-1.85,2.25-.48,.91-.77,2-1.19,3.31-.03,.07-.1,.34-.21,.63-.09,.25-.23,.52-.27,.62-.05,.1-.11,.19-.17,.28v.02c.16-.19,.31-.34,.45-.55,.08-.1,.15-.32,.22-.44,.16-.3,.29-.5,.43-.79,.13-.27,.25-.56,.33-1.02,0-.35,.45-.01,.47-.34,.26-.88,1.05-.68,1.38-1.42,.23-.65,.18-1.35,.69-1.58,.08-.1,.07-.43,.15-.52,.7-.41,1.5-.74,2.44-.92,.15-.12,.88,.43,.88,.13-.08-.5,0-.8,.08-1.09,.06-.03,.49,.36,.6,.28,.48-.21,.54-.81,.96-1.01-.05-.02-.1-.03-.15-.05-.47,.15-.95,.29-1.4,.43Z"/><g><path class="cls-8" d="M16.98,7.19c-.04,.06-.07,.12-.11,.17,.5-.06,.85-.37,1.22-.6-.36,.16-.73,.3-1.12,.43Z"/><path class="cls-8" d="M16.32,7.48h.03c-.24,.08-.48,.16-.72,.24,.05,.02,.1,.03,.15,.05,.12-.06,.26-.1,.44-.1,.05,0,.09,0,.14,0,.02-.05,.04-.1,.06-.15h.05c.2,.07,.32-.02,.41-.15-.04,0-.09,0-.13,.01-.16,.01-.3,.05-.43,.11Z"/></g><path class="cls-3" d="M18.45,9.97c-.36,.28,.07,1.14-.26,1.49-.24,.25-.35,.64-.43,1.07,.48-.64,.78-1.41,.84-2.39-.04-.03-.09-.08-.15-.17Z"/><path class="cls-2" d="M18.2,7.14c-.02,.15-.04,.35-.14,.56-.17,.35-.53,.43-.72,.69-.69,.54-.24,2.62-1.72,2.39-1.4-.29-1.55,1.08-2.24,1.87-.14,.15-.03,.74-.18,.89-.49,.49-.94,.92-1.41,1.32-.37,.31-1.03-.6-1.29-.05-.05,.04-.36-.23-.41-.18-.23,.32-.5,.58-.77,.85-.28,.24-.56,.48-.84,.69-.58,.42-1.15,.75-1.81,1.06-.01,.05-.01,.09,0,.13,.93-.11,1.94-.27,2.93-.51,1.39-.24,2.32-1.41,3.62-1.98,.62-.27,1.25-.63,1.64-1.23-.05-.07-.12-.15-.2-.25,.12,.05,.21,.08,.29,.08l.04-.08c-.01-.06,0-.1,.04-.09-.02,.03-.03,.06-.04,.09,0,.02,.01,.05,.02,.08,.63-.05,.22-1.43,.66-1.37,1.44,.06,1.17-2.19,1.89-2.63,.57-.66,.57-1.67,.68-2.36-.02,.02-.03,.03-.05,.04Z"/><path class="cls-6" d="M17.93,6.95s-.07,0-.1,0c-.29,.46-.69,1.18-1.28,1.63-.04,.05-.33-.07-.53-.1-.36,.07,.06,.83-.22,.9-2.73,.35-3.57,2.92-5.04,4.88-.09,.09-.61-.95-.85-.99-.43,.23-.61,.75-1.12,.62-.12-.11,.04,.56,0,.86-.25,.94-.89,.82-1.25,1.59-.23,.41-.52,.55-.85,.83,0,.02-.01,.04-.01,.05,.65-.31,1.22-.64,1.81-1.06,.29-.21,.57-.45,.84-.69,.27-.27,.53-.53,.77-.85,.04-.05,.36,.22,.41,.18,.2-.43,.83,.44,1.29,.05,.48-.41,.91-.82,1.41-1.32,.15-.15,.04-.74,.18-.89,.69-.79,.84-2.16,2.24-1.87,1.48,.23,1.03-1.85,1.72-2.39,.19-.26,.55-.34,.72-.69,.1-.2,.12-.4,.14-.56-.11,.07-.27,0-.38-.11,.03-.02,.07-.05,.11-.08Z"/><path class="cls-7" d="M18.28,6.86c-.21,.02-.6,0-.24,.04-.04,.03-.08,.06-.11,.09,.09,.09,.23,.15,.33,.06,0-.07,.02-.13,.02-.18Z"/><path class="cls-7" d="M17.77,6.94c-.06,.03-.13,.06-.2,.09-.33,.28-.69,.6-1.22,.63-.08,.15-.19,.25-.42,.17-.06-.02-.11-.04-.16-.06-.41,.2-.48,.8-.96,1.01-.1,.08-.54-.32-.6-.28-.09,.29-.16,.59-.08,1.09,0,.3-.73-.25-.88-.13-.95,.18-1.74,.52-2.44,.92-.08,.1-.07,.43-.15,.52-.52,.24-.46,.93-.69,1.58-.33,.74-1.12,.54-1.38,1.42-.03,.33-.47-.01-.47,.34-.08,.46-.2,.75-.33,1.02-.14,.29-.28,.49-.43,.79-.07,.13-.13,.34-.22,.44-.13,.21-.28,.37-.45,.55v.08s-.01,.05-.01,.05c.33-.28,.62-.42,.85-.83,.36-.77,.99-.65,1.25-1.59,.04-.29-.12-.97,0-.86,.51,.13,.7-.39,1.12-.62,.24,.04,.76,1.08,.85,.99,1.47-1.96,2.3-4.53,5.04-4.88,.29-.08-.14-.83,.22-.9,.2,.03,.49,.15,.53,.1,.59-.44,1-1.16,1.28-1.63-.04,0-.07,0-.07,0Z"/><path class="cls-3" d="M14.39,15.81c.25-.2,.49-.42,.77-.63,.01-.02,.05-.05,.11-.09-.33,.19-.68,.36-.88,.72Z"/><path class="cls-3" d="M15.7,14.74c.28-.24,.57-.52,.72-.69-.38-.09-.71-.09-.89,.14,0,0,.2,.48,.17,.55Z"/><g><path class="cls-4" d="M18.61,9.44c-.01-.69-.11-1.44-.17-2.14-.01,.63,0,1.28,.17,2.14Z"/><path class="cls-3" d="M18.24,7.1c-.11,.69-.11,1.71-.68,2.36-.72,.44-.45,2.7-1.89,2.63-.44-.06-.03,1.32-.66,1.37,.07,.25,.25,.63-.15,.16-.39,.6-1.02,.96-1.64,1.23-1.3,.57-2.23,1.74-3.62,1.98-.99,.24-1.99,.4-2.93,.51,.04,.09,.19,.3,.58,.46,.39,.2,.75,.28,1.16,.38,.37,.07,.74,.1,1.12,.1,.35-.01,.69-.05,1.03-.12,.33-.08,.63-.19,.92-.33,.35-.38,.67-.73,1.15-.87-.18,.17-.34,.37-.5,.59,.52-.29,.97-.66,1.44-1.06-.02,0-.04,0-.06,.01,.11-.09,.23-.17,.35-.27,.2-.35,.59-.49,.92-.66,.11-.08,.27-.2,.45-.32,.05-.06,.38-.74,.77-.64,.05-.05,.09-.09,.1-.11,.49-.45,.97-.84,1.38-1.29,.09-.43,.22-.81,.5-1.02,.42-.27,.47-1.28,.52-1.24,.03-.22,.04-.45,.05-.69-.18-.89-.2-1.58-.13-2.18-.02-.19-.03-.38-.04-.56-.02-.33-.04-.47-.07-.54-.02,.04-.04,.07-.06,.09Z"/></g></g></g></g><g class="cls-11"><g class="cls-12"><g class="cls-12"><path class="cls-1" d="M14.85,12.85c.4,.45,.22,.08,.15-.16-.02,0-.04,0-.06,0-.03,.05-.06,.11-.09,.16Z"/><path class="cls-1" d="M14.93,12.68s.04,0,.06,0c0-.03-.02-.06-.02-.08l-.04,.08Z"/><path class="cls-1" d="M14.65,12.61c.08,.09,.15,.17,.2,.24,.03-.05,.06-.11,.09-.16-.08,0-.17-.02-.29-.07Z"/><path class="cls-1" d="M14.98,12.6s.03-.06,.04-.09c-.05-.01-.05,.03-.04,.09Z"/><path class="cls-8" d="M13.72,7.78c-.69,.2-1.36,.42-1.98,.69,.35,.14,.69,.28,.95,.34,.81,.21,.81-.54,1.02-1.03Z"/><path class="cls-5" d="M10.89,8.93c-.19,.11-.37,.22-.54,.34,.25-.01,.46-.09,.54-.34Z"/><path class="cls-8" d="M13.78,7.89c-.21,.49-.2,1.26-1.01,1.05-.26-.06-.6-.2-.95-.34-.49,.2-.94,.46-1.37,.72-.08,.25-.28,.34-.51,.37-.77,.58-1.38,1.33-1.85,2.25-.48,.91-.77,2-1.19,3.31-.03,.07-.1,.34-.21,.63-.09,.25-.23,.52-.27,.62-.05,.1-.11,.19-.17,.28v.02c.16-.19,.31-.34,.45-.55,.08-.1,.15-.32,.22-.44,.16-.3,.29-.5,.43-.79,.13-.27,.25-.56,.33-1.02,0-.35,.45-.01,.47-.34,.26-.88,1.05-.68,1.38-1.42,.23-.65,.18-1.35,.69-1.58,.08-.1,.07-.43,.15-.52,.7-.41,1.5-.74,2.44-.92,.15-.12,.88,.43,.88,.13-.08-.5,0-.8,.08-1.09,.06-.03,.49,.36,.6,.28,.48-.21,.54-.81,.96-1.01-.05-.02-.1-.03-.15-.05-.47,.15-.95,.29-1.4,.43Z"/><g><path class="cls-8" d="M16.54,6.94c-.04,.06-.07,.12-.11,.17,.5-.06,.85-.37,1.22-.6-.36,.16-.73,.3-1.12,.43Z"/><path class="cls-8" d="M15.87,7.23h.03c-.24,.08-.48,.16-.72,.24,.05,.02,.1,.03,.15,.05,.12-.06,.26-.1,.44-.1,.05,0,.09,0,.14,0,.02-.05,.04-.1,.06-.15h.05c.2,.07,.32-.02,.41-.15-.04,0-.08,0-.13,.01-.16,.01-.3,.05-.43,.11Z"/></g><path class="cls-3" d="M18.01,9.72c-.36,.28,.07,1.14-.26,1.49-.24,.25-.35,.64-.43,1.07,.48-.64,.78-1.41,.84-2.39-.04-.03-.09-.08-.15-.17Z"/><path class="cls-2" d="M17.75,6.89c-.02,.15-.04,.35-.14,.56-.17,.35-.53,.43-.72,.69-.69,.54-.24,2.62-1.72,2.39-1.4-.29-1.55,1.08-2.24,1.87-.14,.15-.03,.74-.18,.89-.49,.49-.94,.92-1.41,1.32-.37,.31-1.03-.6-1.29-.05-.05,.04-.36-.23-.41-.18-.23,.32-.5,.58-.77,.85-.28,.24-.56,.48-.84,.69-.58,.42-1.15,.75-1.81,1.06-.01,.05-.01,.09,0,.13,.93-.11,1.94-.27,2.93-.51,1.39-.24,2.32-1.41,3.62-1.98,.62-.27,1.25-.63,1.64-1.23-.05-.07-.12-.15-.2-.25,.12,.05,.21,.08,.29,.09l.04-.08c-.01-.06,0-.1,.04-.09-.02,.03-.03,.06-.04,.09,0,.02,.01,.05,.02,.08,.63-.05,.22-1.43,.66-1.37,1.44,.06,1.17-2.19,1.89-2.63,.57-.66,.57-1.67,.68-2.36-.02,.02-.03,.03-.05,.04Z"/><path class="cls-6" d="M17.49,6.7s-.07,0-.1,0c-.29,.46-.69,1.18-1.28,1.63-.04,.05-.33-.07-.53-.1-.36,.07,.06,.83-.22,.9-2.73,.35-3.57,2.92-5.04,4.88-.09,.09-.61-.95-.85-.99-.43,.23-.61,.75-1.12,.62-.12-.11,.04,.56,0,.86-.25,.94-.89,.82-1.25,1.59-.23,.41-.52,.55-.85,.83,0,.02-.01,.04-.01,.05,.65-.31,1.22-.64,1.81-1.06,.29-.21,.57-.45,.84-.69,.27-.27,.53-.53,.77-.85,.04-.05,.36,.22,.41,.18,.2-.43,.83,.44,1.29,.05,.48-.41,.91-.82,1.41-1.32,.15-.15,.04-.74,.18-.89,.69-.79,.84-2.16,2.24-1.87,1.48,.23,1.03-1.85,1.72-2.39,.19-.26,.55-.34,.72-.69,.1-.2,.12-.4,.14-.56-.11,.07-.27,0-.38-.11,.03-.02,.07-.05,.11-.08Z"/><path class="cls-7" d="M17.84,6.61c-.21,.02-.6,0-.24,.04-.04,.03-.08,.06-.11,.09,.09,.09,.23,.15,.33,.06,0-.07,.02-.13,.02-.18Z"/><path class="cls-7" d="M17.32,6.69c-.06,.03-.13,.06-.2,.09-.33,.28-.69,.6-1.22,.63-.08,.15-.19,.25-.42,.17-.06-.02-.11-.04-.16-.06-.41,.2-.48,.8-.96,1.01-.1,.08-.54-.32-.6-.28-.09,.29-.16,.59-.08,1.09,0,.3-.73-.25-.88-.13-.95,.18-1.74,.52-2.44,.92-.08,.1-.07,.43-.15,.52-.52,.24-.46,.93-.69,1.58-.33,.74-1.12,.54-1.38,1.42-.03,.33-.47-.01-.47,.34-.08,.46-.2,.75-.33,1.02-.14,.29-.28,.49-.43,.79-.07,.13-.13,.34-.22,.44-.13,.21-.28,.37-.45,.55v.08s-.01,.05-.01,.05c.33-.28,.62-.42,.85-.83,.36-.77,.99-.65,1.25-1.59,.04-.29-.12-.97,0-.86,.51,.13,.7-.39,1.12-.62,.24,.04,.76,1.08,.85,.99,1.47-1.96,2.3-4.53,5.04-4.88,.29-.08-.14-.83,.22-.9,.2,.03,.49,.15,.53,.1,.59-.44,1-1.16,1.28-1.63-.04,0-.07,0-.07,0Z"/><path class="cls-3" d="M13.95,15.55c.25-.2,.49-.42,.77-.63,.01-.02,.05-.05,.11-.09-.33,.19-.68,.36-.88,.72Z"/><path class="cls-3" d="M15.25,14.49c.28-.24,.57-.52,.72-.69-.38-.09-.71-.09-.89,.14,0,0,.2,.48,.17,.55Z"/><g><path class="cls-4" d="M18.17,9.18c-.01-.69-.11-1.44-.17-2.14-.01,.63,0,1.28,.17,2.14Z"/><path class="cls-3" d="M17.8,6.85c-.11,.69-.11,1.71-.68,2.36-.72,.44-.45,2.7-1.89,2.63-.44-.06-.03,1.32-.66,1.37,.07,.25,.25,.63-.15,.16-.39,.6-1.02,.96-1.64,1.23-1.3,.57-2.23,1.74-3.62,1.98-.99,.24-1.99,.4-2.93,.51,.04,.09,.19,.3,.58,.46,.39,.2,.75,.28,1.16,.38,.37,.07,.74,.1,1.12,.1,.35-.01,.69-.05,1.03-.12,.33-.08,.63-.19,.92-.33,.35-.38,.67-.73,1.15-.87-.18,.17-.34,.37-.5,.59,.52-.29,.97-.66,1.44-1.06-.02,0-.04,0-.06,.01,.11-.09,.23-.17,.35-.27,.2-.35,.59-.49,.92-.66,.11-.08,.27-.2,.45-.32,.05-.06,.38-.74,.77-.64,.05-.05,.09-.09,.1-.11,.49-.45,.97-.84,1.38-1.29,.09-.43,.22-.81,.5-1.02,.42-.27,.47-1.28,.52-1.24,.03-.22,.04-.45,.05-.69-.18-.89-.2-1.58-.13-2.18-.02-.19-.03-.38-.04-.56-.02-.33-.04-.47-.07-.54-.02,.04-.04,.07-.06,.09Z"/></g></g></g></g><g><path class="cls-10" d="M10.99,18.18c-.19,0-.38-.02-.58-.08-.58-.17-1.14-.49-1.63-.76-.64-.36-1.2-.68-1.59-.57-.06,.02-.13,0-.16-.06-.03-.05-.03-.12,0-.17,0,0,.58-.73,.49-1.61-.02-.19-.06-.37-.11-.57-.18-.81-.39-1.72,.72-3.42,.03-.05,.1-.08,.16-.06,.02,0,.45,.11,.66,.74,.27-.89,.91-2.28,2.4-3.15,.05-.03,.12-.03,.17,.01,.05,.04,.07,.1,.05,.16,0,0-.18,.62-.24,1.14,.48-.61,1.49-1.83,2.19-2.37,.04-.03,.09-.04,.14-.02,.05,.02,.08,.06,.09,.11,0,.01,.23,1.09,.5,1.66,.38-.38,1.49-1.51,2.11-2.69,.03-.05,.08-.08,.14-.08,.06,0,.11,.04,.13,.1,.04,.1,.87,2.44-.21,4.32,.48-.15,1.33-.48,1.8-1.06,.04-.05,.12-.07,.18-.04,.06,.03,.1,.1,.08,.16,0,.04-.68,3.29-3.34,4.09,.46,.07,.99,.1,1.25,0,.05-.02,.12-.01,.16,.03,.04,.04,.06,.1,.04,.16,0,.03-.91,2.39-4.48,2.39-.04,0-.09,0-.13,0,.44,.2,.93,.41,1.16,.42,.06,0,.11,.04,.13,.1,.02,.05,0,.12-.04,.16-.05,.05-1.06,1-2.23,1.01Zm-3.55-1.73c.43,.04,.93,.31,1.48,.63,.48,.27,1.02,.57,1.57,.74,.92,.27,1.87-.34,2.29-.66-.59-.18-1.49-.65-1.61-.71-.06-.03-.09-.11-.07-.17,.02-.07,.08-.11,.16-.1,3.26,.32,4.52-1.24,4.9-1.88-.68,.08-1.7-.16-1.83-.2-.07-.02-.12-.08-.11-.15,0-.07,.06-.13,.13-.14,2.36-.26,3.35-2.47,3.69-3.49-.78,.62-1.87,.85-1.93,.86-.06,.01-.12-.01-.15-.06-.03-.05-.03-.12,0-.17,1.03-1.42,.68-3.3,.49-4.05-.8,1.36-2.07,2.54-2.13,2.6-.03,.03-.08,.04-.12,.04-.04,0-.08-.03-.11-.07-.26-.4-.48-1.26-.58-1.68-.91,.8-2.22,2.5-2.23,2.52-.04,.05-.1,.07-.16,.05-.06-.02-.1-.07-.11-.13-.04-.38,.08-.94,.17-1.31-1.86,1.31-2.12,3.54-2.13,3.57,0,.08-.06,.13-.16,.13-.08,0-.14-.07-.14-.15,.02-.87-.29-1.17-.45-1.26-.97,1.53-.78,2.36-.61,3.09,.05,.21,.09,.4,.11,.61,.07,.68-.19,1.25-.38,1.57Z"/><path class="cls-10" d="M16.26,11.53c-1.07,.3-1.77,.07-2.06-.07,.48-.5,.93-1.02,1.37-1.55,.05-.06,.04-.15-.02-.2-.06-.05-.15-.04-.2,.02h0c-.79,.95-1.63,1.85-2.56,2.65-.04,.04-.09,.07-.14,.11-.13-1.08,.22-1.89,.23-1.89,.03-.07,0-.16-.07-.2-.07-.03-.16,0-.2,.07-.02,.04-.43,.98-.22,2.24-.64,.54-1.31,1.06-2,1.54-.14-.42-.38-1.38,.07-2.03,.05-.07,.03-.16-.04-.21-.07-.05-.16-.03-.21,.04-.57,.82-.23,1.97-.08,2.38-.09,.06-.18,.13-.27,.19-1.02,.68-2.08,1.32-3.17,1.89-1.09,.57-2.21,1.11-3.34,1.55h0s0,0,0,0c-.11,.05-.17,.18-.12,.29,.05,.11,.18,.17,.29,.12,1.17-.47,2.28-1.02,3.38-1.61,1.09-.59,2.15-1.25,3.18-1.95,.46-.31,.89-.64,1.33-.97,.01,.02,.02,.03,.03,.05,.29,.37,1.05,.6,2.28,.68,0,0,0,0,.01,0,.08,0,.14-.06,.15-.14,0-.08-.06-.15-.14-.16-1.64-.11-2.01-.46-2.09-.61,.47-.37,.92-.75,1.37-1.15,.34-.3,.66-.61,.98-.94,.19,.1,.61,.29,1.26,.29,.31,0,.68-.04,1.09-.16,.08-.02,.13-.1,.1-.18-.02-.08-.1-.13-.18-.1Z"/><path class="cls-10" d="M13.18,21.84c-2.32,0-4.57-.83-6.34-2.34-.08-.07-.09-.19-.02-.28,.07-.08,.19-.09,.28-.02,1.69,1.45,3.85,2.24,6.08,2.24,5.17,0,9.37-4.2,9.37-9.37S18.34,2.72,13.18,2.72,3.81,6.92,3.81,12.09c0,1.14,.2,2.26,.61,3.32,.04,.1-.01,.21-.11,.25-.1,.04-.21-.01-.25-.11-.42-1.1-.63-2.27-.63-3.46C3.42,6.71,7.8,2.33,13.18,2.33s9.76,4.38,9.76,9.76-4.38,9.76-9.76,9.76Z"/></g></g><g><path class="cls-9" d="M25.78,6.53l1.44,4.06h.03l1.39-4.06h.3l1.36,4.08h.03l1.45-4.08h.32l-1.73,4.89h-.41l-1.29-3.82h-.04l-1.33,3.82h-.42l-1.73-4.89h.64Z"/><path class="cls-9" d="M35.57,11c-.28,.21-.54,.34-.76,.41-.23,.06-.43,.09-.62,.09-.28,0-.54-.04-.75-.12-.22-.08-.4-.18-.54-.31-.15-.13-.26-.27-.33-.44-.08-.16-.11-.33-.11-.5,0-.18,.03-.34,.1-.49s.16-.29,.28-.42c.12-.13,.26-.24,.42-.35,.16-.11,.33-.2,.52-.29-.15-.21-.28-.4-.38-.58-.1-.17-.16-.36-.16-.56,0-.12,.02-.24,.06-.36,.04-.12,.1-.23,.19-.33,.09-.1,.2-.18,.33-.24,.13-.06,.29-.09,.48-.09,.14,0,.28,.02,.41,.07,.12,.05,.23,.11,.33,.2,.09,.09,.17,.19,.22,.32,.06,.12,.08,.26,.08,.42,0,.2-.07,.39-.2,.58-.13,.19-.36,.36-.69,.51l1.39,1.83c.14-.19,.25-.4,.32-.64,.07-.24,.12-.55,.13-.92h.54c-.02,.25-.07,.48-.14,.68s-.15,.38-.24,.53c-.09,.15-.17,.28-.25,.38-.08,.1-.14,.17-.18,.22l.64,.8h-.74l-.32-.42Zm-1.64-2.16c-.34,.18-.57,.35-.7,.52-.13,.17-.19,.36-.19,.57,0,.19,.04,.36,.12,.51s.18,.27,.31,.37,.27,.18,.43,.23c.16,.05,.31,.08,.46,.08,.04,0,.09,0,.17-.01,.08,0,.16-.02,.26-.05,.1-.02,.2-.06,.3-.1,.1-.05,.21-.11,.3-.2l-1.47-1.94Zm.37-2.1c-.1,0-.19,.02-.26,.05-.07,.03-.13,.08-.18,.14s-.08,.12-.1,.19c-.02,.07-.03,.14-.03,.21,0,.16,.05,.32,.15,.48,.1,.16,.23,.33,.38,.51,.06-.03,.13-.08,.2-.14,.07-.06,.14-.12,.2-.2,.06-.08,.11-.16,.15-.26,.04-.1,.06-.21,.06-.32,0-.06,0-.13-.03-.21-.02-.08-.05-.15-.09-.21-.04-.06-.1-.12-.17-.17-.07-.05-.17-.07-.28-.07Z"/><path class="cls-9" d="M37.82,9.98l-.61,1.44h-.32l2.07-4.89h.35l2.28,4.89h-.68l-.67-1.44h-2.41Zm1.17-2.67h-.03l-1.01,2.35h2.13l-1.1-2.35Z"/><path class="cls-9" d="M44.51,6.53h.64v2.75l2.62-2.75h.35l-1.77,1.89,2.18,3h-.73l-1.86-2.56-.79,.85v1.72h-.64V6.53Z"/><path class="cls-9" d="M49.29,11.42V6.53h.64v4.51h2.52v.38h-3.16Z"/><path class="cls-9" d="M54.14,6.53v4.89h-.64V6.53h.64Z"/><path class="cls-9" d="M60.07,6.53v4.97h-.03l-3.88-3.82h-.03v3.74h-.32V6.45h.04l3.88,3.82h.03v-3.74h.32Z"/><path class="cls-9" d="M62.39,6.53v4.89h-.64V6.53h.64Z"/><path class="cls-9" d="M67.28,11.37c-.15,.05-.3,.09-.45,.11-.15,.02-.31,.03-.47,.03-.4,0-.76-.07-1.09-.2-.33-.13-.61-.32-.85-.55-.24-.23-.42-.5-.55-.81-.13-.31-.2-.63-.2-.98,0-.27,.05-.55,.15-.85,.1-.3,.26-.57,.48-.82,.22-.25,.49-.45,.83-.61s.74-.25,1.22-.25,.89,.08,1.23,.25c.34,.16,.62,.37,.84,.62,.22,.25,.38,.52,.49,.82,.11,.3,.16,.58,.16,.84,0,.18-.02,.36-.07,.56-.05,.2-.12,.39-.22,.59-.1,.2-.24,.38-.4,.56-.16,.18-.36,.34-.59,.47l.66,.69-.53,.19-.66-.67Zm.22-.53c.21-.17,.38-.34,.5-.52s.21-.36,.26-.53c.06-.17,.09-.33,.1-.47,.01-.14,.02-.26,.02-.35,0-.33-.05-.63-.16-.9s-.25-.51-.43-.7-.4-.34-.64-.45c-.25-.11-.51-.16-.79-.16s-.53,.05-.77,.16c-.24,.11-.45,.26-.63,.45-.18,.19-.32,.43-.43,.7s-.16,.57-.16,.9c0,.35,.05,.66,.16,.94,.1,.27,.25,.51,.42,.7,.18,.19,.38,.34,.61,.44,.23,.1,.48,.15,.73,.15,.12,0,.25,0,.37-.02,.12-.02,.24-.05,.36-.09l-.5-.51,.44-.29,.53,.55Z"/><path class="cls-9" d="M70.38,6.53v3.19c0,.09,0,.19,0,.28,0,.09,.02,.18,.05,.28,.03,.09,.07,.18,.12,.28,.06,.09,.14,.19,.25,.28,.13,.12,.28,.21,.43,.27s.32,.09,.52,.09c.23,0,.45-.03,.66-.1,.21-.07,.4-.19,.57-.37,.09-.1,.16-.21,.21-.31s.08-.21,.11-.31c.02-.11,.04-.21,.04-.31,0-.11,0-.21,0-.31v-2.96h.31v3.19c0,.25-.04,.48-.12,.7s-.2,.41-.35,.57c-.16,.16-.35,.29-.58,.38-.23,.09-.5,.14-.79,.14-.48,0-.85-.07-1.12-.2s-.48-.3-.62-.5-.23-.41-.26-.64c-.04-.23-.06-.44-.06-.63v-3h.64Z"/><path class="cls-9" d="M77.94,6.53v.38h-2.52v1.75h2.17v.32h-2.17v2.05h2.52v.38h-3.16V6.53h3.16Z"/></g><g><path class="cls-9" d="M34.87,17.73v.22h-1.93v-3.52h.26v3.31h1.67Z"/><path class="cls-9" d="M35.2,16.61v.05c0,.19,.02,.35,.06,.49,.04,.14,.11,.26,.18,.36,.08,.09,.18,.17,.29,.21,.11,.05,.24,.07,.38,.07,.12,0,.23-.01,.32-.04,.09-.03,.17-.06,.23-.09,.06-.03,.11-.06,.15-.09,.04-.03,.06-.04,.08-.04,.02,0,.04,0,.05,.03l.06,.08c-.04,.05-.09,.1-.16,.14-.07,.04-.14,.08-.22,.11-.08,.03-.17,.05-.26,.07-.09,.02-.18,.03-.28,.03-.17,0-.32-.03-.46-.09-.14-.06-.26-.15-.36-.26-.1-.11-.18-.25-.23-.42-.05-.16-.08-.35-.08-.56,0-.18,.03-.34,.08-.49s.12-.28,.22-.39c.09-.11,.21-.19,.35-.26,.14-.06,.3-.09,.47-.09,.14,0,.27,.02,.39,.07,.12,.05,.22,.12,.31,.21,.09,.09,.16,.21,.21,.34,.05,.13,.08,.29,.08,.46,0,.04,0,.06-.01,.08,0,.01-.03,.02-.05,.02h-1.8Zm1.65-.15c0-.13-.02-.25-.06-.36-.04-.11-.09-.2-.16-.27-.07-.07-.15-.13-.24-.17s-.2-.06-.31-.06c-.13,0-.24,.02-.34,.06-.1,.04-.19,.1-.26,.17-.07,.08-.13,.17-.18,.27s-.08,.22-.09,.35h1.64Z"/><path class="cls-9" d="M39.3,15.9c.11-.15,.23-.26,.38-.34s.31-.13,.5-.13c.15,0,.28,.03,.4,.08s.22,.13,.3,.24c.08,.1,.15,.23,.19,.38s.06,.32,.06,.51c0,.2-.02,.38-.07,.55-.05,.17-.12,.31-.21,.42-.09,.12-.21,.21-.34,.27s-.29,.1-.46,.1-.33-.03-.45-.1c-.12-.07-.23-.17-.32-.3l-.02,.31s-.03,.06-.07,.06h-.14v-3.62h.24v1.58Zm0,1.51c.1,.14,.2,.24,.32,.3,.12,.06,.25,.09,.39,.09s.28-.03,.39-.08c.11-.05,.2-.13,.28-.23,.07-.1,.13-.22,.17-.36,.04-.14,.05-.3,.05-.48,0-.34-.07-.6-.2-.77s-.33-.26-.57-.26c-.18,0-.33,.04-.46,.13-.13,.08-.25,.2-.35,.35v1.31Z"/><path class="cls-9" d="M41.74,15.82c.13-.13,.27-.23,.41-.29s.3-.1,.49-.1c.13,0,.25,.02,.35,.06,.1,.04,.18,.1,.25,.18,.07,.08,.11,.17,.15,.29s.05,.24,.05,.38v1.61h-.09s-.08-.02-.09-.07l-.04-.32c-.07,.07-.14,.13-.2,.18-.07,.05-.14,.1-.21,.13-.07,.04-.15,.07-.24,.08-.08,.02-.18,.03-.28,.03-.08,0-.17-.01-.25-.04-.08-.03-.15-.06-.21-.12-.06-.05-.11-.12-.15-.2-.04-.08-.06-.18-.06-.29,0-.1,.03-.2,.09-.29,.06-.09,.15-.17,.28-.23s.29-.12,.49-.16,.44-.06,.72-.07v-.26c0-.23-.05-.41-.15-.53-.1-.12-.25-.19-.44-.19-.12,0-.22,.02-.3,.05s-.16,.07-.21,.11c-.06,.04-.11,.08-.14,.11-.04,.03-.07,.05-.09,.05-.02,0-.03,0-.04-.01-.01,0-.02-.02-.03-.03l-.04-.07Zm1.46,.93c-.24,0-.44,.03-.61,.06-.17,.03-.31,.07-.42,.12s-.19,.11-.25,.18c-.05,.07-.08,.15-.08,.24,0,.08,.01,.16,.04,.22s.06,.11,.11,.15,.1,.07,.16,.09c.06,.02,.12,.03,.19,.03,.1,0,.18-.01,.27-.03,.08-.02,.16-.05,.22-.09,.07-.04,.13-.08,.19-.13s.12-.11,.18-.17v-.65Zm-.84-2s0,.05-.02,.08c-.01,.02-.03,.04-.05,.06-.02,.02-.04,.03-.07,.04-.03,.01-.05,.02-.08,.02-.03,0-.05,0-.08-.02-.02-.01-.04-.03-.06-.04-.02-.02-.03-.04-.04-.06-.01-.02-.02-.05-.02-.08,0-.03,0-.05,.02-.08,.01-.02,.03-.05,.04-.07,.02-.02,.04-.03,.06-.04,.02-.01,.05-.02,.08-.02,.03,0,.05,0,.08,.02,.02,.01,.05,.03,.07,.04,.02,.02,.04,.04,.05,.07,.01,.03,.02,.05,.02,.08Zm.88,0s0,.05-.02,.08c-.01,.02-.03,.04-.04,.06-.02,.02-.04,.03-.07,.04-.02,.01-.05,.02-.08,.02-.03,0-.05,0-.08-.02-.03-.01-.05-.03-.07-.04-.02-.02-.03-.04-.04-.06-.01-.02-.02-.05-.02-.08,0-.06,.02-.11,.06-.15,.04-.04,.09-.06,.14-.06,.03,0,.05,0,.08,.02,.03,.01,.05,.03,.07,.04,.02,.02,.03,.04,.04,.07,.01,.03,.02,.05,.02,.08Z"/><path class="cls-9" d="M44.87,17.99c-.17,0-.3-.05-.39-.14s-.14-.24-.14-.43v-1.69h-.36s-.03,0-.04-.01c-.01,0-.02-.02-.02-.04v-.09l.42-.03,.06-.89s0-.03,.02-.04c0-.01,.02-.02,.04-.02h.11v.95h1.34l.06-.89s0-.03,.02-.04c0-.01,.02-.02,.04-.02h.11v.95h.78v.18h-.78v1.68c0,.07,0,.13,.03,.18,.02,.05,.04,.09,.07,.12,.03,.03,.07,.06,.11,.07,.04,.01,.09,.02,.13,.02,.06,0,.11,0,.15-.03,.04-.02,.08-.04,.11-.06,.03-.02,.06-.04,.08-.06,.02-.02,.04-.03,.05-.03,.01,0,.03,0,.04,.02l.06,.11c-.06,.07-.14,.12-.24,.17-.1,.04-.2,.06-.3,.06-.17,0-.3-.05-.39-.14s-.14-.24-.14-.43v-1.69h-1.34v1.68c0,.07,0,.13,.03,.18s.04,.09,.07,.12c.03,.03,.07,.06,.11,.07,.04,.01,.09,.02,.13,.02,.06,0,.11,0,.15-.03s.08-.04,.11-.06c.03-.02,.06-.04,.08-.06,.02-.02,.04-.03,.05-.03,.01,0,.03,0,.04,.02l.06,.11c-.06,.07-.14,.12-.24,.17-.1,.04-.2,.06-.3,.06Z"/><path class="cls-9" d="M47.7,16.07c.04-.1,.08-.19,.13-.27,.05-.08,.11-.15,.17-.2,.06-.05,.13-.1,.21-.13s.17-.04,.26-.04c.05,0,.1,0,.15,.01,.05,0,.09,.03,.13,.05l-.02,.17s-.02,.04-.05,.04c-.02,0-.05,0-.09-.02s-.09-.02-.16-.02c-.1,0-.18,.01-.26,.04-.07,.03-.14,.07-.2,.13-.06,.06-.11,.13-.15,.22s-.08,.18-.12,.29v1.6h-.24v-2.48h.13s.05,0,.06,.02,.02,.03,.02,.06l.02,.52Z"/><path class="cls-9" d="M49.18,16.61v.05c0,.19,.02,.35,.06,.49,.04,.14,.11,.26,.18,.36,.08,.09,.18,.17,.29,.21,.11,.05,.24,.07,.38,.07,.12,0,.23-.01,.32-.04,.09-.03,.17-.06,.23-.09,.06-.03,.11-.06,.15-.09,.04-.03,.06-.04,.08-.04,.02,0,.04,0,.05,.03l.06,.08c-.04,.05-.09,.1-.16,.14-.07,.04-.14,.08-.22,.11-.08,.03-.17,.05-.26,.07-.09,.02-.18,.03-.28,.03-.17,0-.32-.03-.46-.09-.14-.06-.26-.15-.36-.26-.1-.11-.18-.25-.23-.42-.05-.16-.08-.35-.08-.56,0-.18,.03-.34,.08-.49s.12-.28,.22-.39c.09-.11,.21-.19,.35-.26,.14-.06,.3-.09,.47-.09,.14,0,.27,.02,.39,.07,.12,.05,.22,.12,.31,.21,.09,.09,.16,.21,.21,.34,.05,.13,.08,.29,.08,.46,0,.04,0,.06-.01,.08,0,.01-.03,.02-.05,.02h-1.8Zm1.65-.15c0-.13-.02-.25-.06-.36-.04-.11-.09-.2-.16-.27-.07-.07-.15-.13-.24-.17s-.2-.06-.31-.06c-.13,0-.24,.02-.34,.06-.1,.04-.19,.1-.26,.17-.07,.08-.13,.17-.18,.27s-.08,.22-.09,.35h1.64Z"/><path class="cls-9" d="M53.05,17.95v-2.48h.13s.07,.02,.07,.06l.02,.36c.1-.14,.21-.25,.33-.33,.12-.08,.26-.13,.42-.13,.18,0,.33,.05,.43,.16s.18,.25,.22,.44c.03-.1,.07-.19,.13-.26,.05-.08,.12-.14,.19-.19,.07-.05,.15-.08,.23-.11s.17-.04,.25-.04c.12,0,.23,.02,.33,.06,.1,.04,.18,.1,.25,.18,.07,.08,.12,.18,.16,.29,.04,.12,.05,.25,.05,.4v1.58h-.24v-1.58c0-.24-.05-.43-.16-.55s-.25-.19-.45-.19c-.09,0-.17,.02-.25,.05-.08,.03-.15,.08-.21,.14-.06,.06-.11,.14-.14,.23-.04,.09-.05,.2-.05,.32v1.58h-.24v-1.58c0-.24-.05-.43-.14-.55-.09-.13-.24-.19-.42-.19-.13,0-.26,.04-.37,.12-.11,.08-.22,.19-.31,.33v1.88h-.24Z"/><path class="cls-9" d="M57.14,16.61v.05c0,.19,.02,.35,.06,.49,.04,.14,.11,.26,.18,.36,.08,.09,.18,.17,.29,.21,.11,.05,.24,.07,.38,.07,.12,0,.23-.01,.32-.04,.09-.03,.17-.06,.23-.09,.06-.03,.11-.06,.15-.09,.04-.03,.06-.04,.08-.04,.02,0,.04,0,.05,.03l.06,.08c-.04,.05-.09,.1-.16,.14-.07,.04-.14,.08-.22,.11-.08,.03-.17,.05-.26,.07-.09,.02-.18,.03-.28,.03-.17,0-.32-.03-.46-.09-.14-.06-.26-.15-.36-.26-.1-.11-.18-.25-.23-.42-.05-.16-.08-.35-.08-.56,0-.18,.03-.34,.08-.49s.12-.28,.22-.39c.09-.11,.21-.19,.35-.26,.14-.06,.3-.09,.47-.09,.14,0,.27,.02,.39,.07,.12,.05,.22,.12,.31,.21,.09,.09,.16,.21,.21,.34,.05,.13,.08,.29,.08,.46,0,.04,0,.06-.01,.08,0,.01-.03,.02-.05,.02h-1.8Zm1.65-.15c0-.13-.02-.25-.06-.36-.04-.11-.09-.2-.16-.27-.07-.07-.15-.13-.24-.17s-.2-.06-.31-.06c-.13,0-.24,.02-.34,.06-.1,.04-.19,.1-.26,.17-.07,.08-.13,.17-.18,.27s-.08,.22-.09,.35h1.64Z"/><path class="cls-9" d="M61.59,14.33v3.62h-.13s-.07-.02-.07-.06l-.03-.39c-.11,.15-.24,.27-.38,.36-.15,.09-.31,.13-.49,.13-.31,0-.54-.11-.71-.32-.17-.21-.25-.53-.25-.95,0-.18,.02-.35,.07-.51,.05-.16,.12-.29,.21-.41,.09-.12,.2-.21,.34-.27s.29-.1,.46-.1,.31,.03,.44,.09,.23,.15,.32,.27v-1.47h.24Zm-.24,1.68c-.09-.14-.2-.24-.31-.3-.12-.06-.25-.09-.4-.09s-.27,.03-.38,.08c-.11,.05-.2,.13-.28,.23-.07,.1-.13,.21-.17,.35-.04,.14-.06,.29-.06,.45,0,.37,.07,.64,.2,.81,.14,.17,.33,.26,.59,.26,.16,0,.31-.04,.45-.13,.13-.08,.25-.2,.36-.36v-1.3Z"/><path class="cls-9" d="M64.74,15.43c.18,0,.34,.03,.48,.09s.26,.15,.35,.26c.1,.11,.17,.25,.22,.4s.08,.33,.08,.53-.03,.37-.08,.53-.12,.29-.22,.4c-.1,.11-.21,.2-.35,.26-.14,.06-.3,.09-.48,.09s-.34-.03-.48-.09c-.14-.06-.26-.14-.36-.26-.1-.11-.17-.25-.22-.4s-.08-.33-.08-.53,.03-.37,.08-.53,.12-.29,.22-.4c.1-.11,.22-.2,.36-.26s.3-.09,.48-.09Zm0,2.36c.15,0,.28-.03,.39-.08s.2-.12,.28-.22,.13-.21,.17-.34c.04-.13,.05-.28,.05-.45s-.02-.31-.05-.45c-.04-.13-.09-.25-.17-.35s-.17-.17-.28-.22c-.11-.05-.24-.08-.39-.08s-.28,.03-.39,.08c-.11,.05-.2,.12-.28,.22-.07,.1-.13,.21-.17,.35-.04,.13-.06,.28-.06,.45s.02,.32,.06,.45c.04,.13,.09,.25,.17,.34,.07,.09,.17,.17,.28,.22s.24,.08,.39,.08Z"/><path class="cls-9" d="M67.9,15.78s-.03,.03-.06,.03c-.02,0-.04,0-.07-.03-.03-.02-.07-.04-.11-.07-.05-.03-.11-.05-.17-.07-.07-.02-.15-.03-.25-.03-.09,0-.17,.01-.25,.04-.07,.03-.14,.06-.19,.1-.05,.04-.09,.09-.12,.15-.03,.06-.04,.12-.04,.18,0,.08,.02,.14,.06,.19,.04,.05,.09,.1,.16,.13,.06,.04,.14,.07,.22,.09,.08,.03,.17,.05,.25,.08,.08,.03,.17,.06,.25,.09,.08,.03,.16,.07,.22,.12,.06,.05,.12,.11,.16,.18,.04,.07,.06,.15,.06,.25,0,.11-.02,.21-.06,.3-.04,.09-.09,.17-.17,.24s-.17,.12-.27,.16c-.11,.04-.23,.06-.37,.06-.17,0-.33-.03-.45-.08s-.24-.13-.34-.22l.05-.08s.02-.02,.03-.03c.01,0,.03,0,.04,0,.02,0,.05,.01,.08,.04,.03,.03,.07,.06,.12,.09,.05,.03,.11,.06,.19,.09,.08,.03,.17,.04,.28,.04,.1,0,.2-.01,.28-.04,.08-.03,.15-.07,.2-.12s.09-.11,.12-.17c.03-.07,.04-.14,.04-.21,0-.08-.02-.15-.06-.21-.04-.05-.09-.1-.16-.14s-.14-.07-.22-.1c-.08-.03-.17-.05-.25-.08-.09-.03-.17-.06-.25-.09-.08-.03-.16-.07-.22-.12-.07-.05-.12-.11-.16-.18-.04-.07-.06-.15-.06-.26,0-.09,.02-.17,.06-.25s.09-.15,.16-.21c.07-.06,.16-.11,.26-.15,.1-.04,.22-.05,.34-.05,.15,0,.29,.02,.4,.06,.12,.04,.22,.11,.32,.2l-.05,.08Z"/><path class="cls-9" d="M70.02,15.78s-.03,.03-.06,.03c-.02,0-.04,0-.07-.03-.03-.02-.07-.04-.11-.07-.05-.03-.11-.05-.17-.07-.07-.02-.15-.03-.25-.03-.09,0-.17,.01-.25,.04-.07,.03-.14,.06-.19,.1-.05,.04-.09,.09-.12,.15-.03,.06-.04,.12-.04,.18,0,.08,.02,.14,.06,.19,.04,.05,.09,.1,.16,.13,.06,.04,.14,.07,.22,.09,.08,.03,.17,.05,.25,.08,.08,.03,.17,.06,.25,.09,.08,.03,.16,.07,.22,.12,.06,.05,.12,.11,.16,.18,.04,.07,.06,.15,.06,.25,0,.11-.02,.21-.06,.3-.04,.09-.09,.17-.17,.24s-.17,.12-.27,.16c-.11,.04-.23,.06-.37,.06-.17,0-.33-.03-.45-.08s-.24-.13-.34-.22l.05-.08s.02-.02,.03-.03c.01,0,.03,0,.04,0,.02,0,.05,.01,.08,.04,.03,.03,.07,.06,.12,.09,.05,.03,.11,.06,.19,.09,.08,.03,.17,.04,.28,.04,.1,0,.2-.01,.28-.04,.08-.03,.15-.07,.2-.12s.09-.11,.12-.17c.03-.07,.04-.14,.04-.21,0-.08-.02-.15-.06-.21-.04-.05-.09-.1-.16-.14s-.14-.07-.22-.1c-.08-.03-.17-.05-.25-.08-.09-.03-.17-.06-.25-.09-.08-.03-.16-.07-.22-.12-.07-.05-.12-.11-.16-.18-.04-.07-.06-.15-.06-.26,0-.09,.02-.17,.06-.25s.09-.15,.16-.21c.07-.06,.16-.11,.26-.15,.1-.04,.22-.05,.34-.05,.15,0,.29,.02,.4,.06,.12,.04,.22,.11,.32,.2l-.05,.08Z"/></g></g></g></svg>