<?xml version="1.0" encoding="UTF-8"?><svg xmlns="http://www.w3.org/2000/svg" viewBox="0 0 75.3 74.5"><defs><style>.cls-1{fill:#fad3d4;}.cls-2{fill:#fce1e2;}.cls-3{fill:#fbdfdf;}.cls-4{fill:#fbdbdb;}.cls-5{fill:#fce6e7;}.cls-6{fill:#fce4e5;}.cls-7{fill:#fde8e9;}.cls-8{fill:#fdebeb;}.cls-9{fill:#633;}.cls-10{fill:#5e3c3e;}.cls-11{mix-blend-mode:multiply;}.cls-12{opacity:.8;}.cls-13{isolation:isolate;}</style></defs><g class="cls-13"><g id="Layer_1"><g><g><path class="cls-9" d="M7.66,57l1.68,4.73h.03l1.62-4.73h.35l1.59,4.75h.03l1.68-4.75h.37l-2.02,5.7h-.48l-1.51-4.45h-.04l-1.55,4.45h-.49l-2.02-5.7h.75Z"/><path class="cls-9" d="M19.06,62.21c-.33,.24-.63,.4-.89,.47-.26,.07-.51,.11-.73,.11-.33,0-.62-.05-.87-.13-.25-.09-.46-.21-.63-.36-.17-.15-.3-.32-.39-.51-.09-.19-.13-.38-.13-.58,0-.21,.04-.4,.12-.57s.19-.33,.33-.48c.14-.15,.3-.28,.48-.41,.18-.12,.38-.24,.6-.34-.17-.24-.32-.47-.44-.67-.12-.2-.18-.42-.18-.65,0-.14,.02-.28,.07-.42,.05-.14,.12-.27,.22-.39,.1-.11,.23-.21,.38-.28,.15-.07,.34-.11,.56-.11,.17,0,.33,.03,.47,.08,.15,.05,.27,.13,.38,.24,.11,.1,.19,.23,.26,.37,.06,.14,.1,.3,.1,.48,0,.23-.08,.45-.23,.67-.15,.22-.42,.42-.8,.6l1.62,2.13c.16-.22,.29-.47,.37-.74,.09-.28,.14-.64,.15-1.07h.63c-.03,.29-.08,.56-.17,.79s-.18,.44-.28,.62c-.1,.18-.2,.33-.29,.44-.09,.12-.17,.2-.21,.26l.74,.94h-.86l-.37-.49Zm-1.91-2.51c-.4,.21-.67,.41-.82,.61-.15,.2-.22,.42-.22,.67,0,.22,.05,.42,.14,.59s.21,.32,.36,.44,.32,.21,.5,.27c.18,.06,.36,.09,.54,.09,.04,0,.11,0,.2-.01,.09,0,.19-.03,.3-.05,.11-.03,.23-.07,.35-.12,.12-.05,.24-.13,.35-.23l-1.71-2.25Zm.44-2.44c-.12,0-.22,.02-.31,.06-.09,.04-.15,.09-.21,.16s-.09,.14-.12,.22c-.03,.08-.04,.16-.04,.24,0,.19,.06,.38,.18,.56,.12,.18,.27,.38,.44,.6,.07-.04,.15-.09,.23-.16,.08-.07,.16-.15,.23-.24,.07-.09,.13-.19,.18-.3,.05-.11,.07-.24,.07-.38,0-.07-.01-.15-.03-.24-.02-.09-.06-.17-.11-.25-.05-.08-.12-.14-.2-.19-.08-.05-.19-.08-.32-.08Z"/><path class="cls-9" d="M21.68,61.02l-.72,1.68h-.37l2.41-5.7h.41l2.65,5.7h-.79l-.78-1.68h-2.81Zm1.36-3.11h-.03l-1.17,2.74h2.48l-1.28-2.74Z"/><path class="cls-9" d="M29.47,57h.74v3.21l3.05-3.21h.41l-2.07,2.21,2.54,3.49h-.85l-2.16-2.99-.92,.98v2h-.74v-5.7Z"/><path class="cls-9" d="M35.04,62.69v-5.7h.74v5.25h2.94v.45h-3.68Z"/><path class="cls-9" d="M40.68,57v5.7h-.74v-5.7h.74Z"/><path class="cls-9" d="M47.59,57v5.79h-.04l-4.52-4.45h-.03v4.35h-.38v-5.79h.04l4.52,4.45h.03v-4.35h.37Z"/><path class="cls-9" d="M50.29,57v5.7h-.74v-5.7h.74Z"/><path class="cls-9" d="M55.99,62.63c-.17,.06-.35,.1-.53,.13-.18,.02-.36,.04-.54,.04-.46,0-.88-.08-1.26-.24-.38-.16-.71-.37-.99-.64-.28-.27-.49-.58-.64-.94-.15-.36-.23-.74-.23-1.14,0-.31,.06-.64,.18-.98,.12-.35,.31-.66,.56-.95,.25-.29,.58-.53,.97-.72s.87-.29,1.42-.29,1.04,.1,1.44,.29c.4,.19,.73,.43,.98,.72,.26,.29,.45,.61,.57,.95,.12,.34,.18,.67,.18,.98,0,.21-.03,.42-.08,.66-.05,.23-.14,.46-.26,.69-.12,.23-.27,.45-.46,.66-.19,.21-.42,.39-.68,.55l.77,.81-.62,.22-.77-.78Zm.26-.62c.25-.2,.44-.4,.58-.61s.24-.42,.3-.62c.06-.2,.1-.38,.12-.54,.01-.16,.02-.3,.02-.4,0-.39-.06-.74-.18-1.05s-.29-.59-.5-.81-.46-.4-.75-.52c-.29-.13-.6-.19-.93-.19s-.62,.06-.9,.19c-.28,.12-.53,.3-.73,.52-.21,.23-.37,.5-.5,.81s-.18,.67-.18,1.05c0,.41,.06,.77,.18,1.09,.12,.32,.29,.59,.49,.82,.2,.23,.44,.4,.71,.51,.27,.12,.55,.18,.85,.18,.15,0,.29,0,.43-.03,.14-.02,.28-.06,.42-.11l-.58-.59,.51-.33,.62,.64Z"/><path class="cls-9" d="M59.6,57v3.72c0,.11,0,.22,0,.33,0,.11,.03,.21,.06,.32,.03,.11,.08,.21,.15,.32,.07,.11,.16,.22,.29,.33,.16,.14,.32,.25,.5,.32s.38,.11,.61,.11c.26,0,.52-.04,.76-.11,.24-.08,.46-.22,.66-.43,.11-.12,.19-.24,.25-.36s.1-.24,.13-.36c.03-.12,.04-.24,.05-.37,0-.12,0-.24,0-.36v-3.44h.36v3.71c0,.29-.05,.56-.14,.81s-.23,.47-.41,.66c-.18,.19-.41,.34-.68,.45-.27,.11-.58,.16-.92,.16-.55,0-.99-.08-1.31-.23s-.56-.35-.72-.58-.26-.48-.31-.75c-.04-.27-.07-.51-.07-.74v-3.5h.74Z"/><path class="cls-9" d="M68.4,57v.45h-2.94v2.04h2.52v.37h-2.52v2.38h2.94v.45h-3.68v-5.7h3.68Z"/></g><g><path class="cls-9" d="M18.25,70.05v.25h-2.24v-4.1h.3v3.85h1.94Z"/><path class="cls-9" d="M18.62,68.74v.06c0,.22,.03,.41,.08,.57,.05,.16,.12,.3,.21,.41,.09,.11,.2,.19,.34,.25,.13,.06,.28,.08,.44,.08,.14,0,.27-.02,.38-.05,.11-.03,.2-.07,.27-.11,.07-.04,.13-.08,.17-.11,.04-.03,.07-.05,.09-.05,.03,0,.04,.01,.06,.03l.08,.09c-.05,.06-.11,.11-.18,.16-.08,.05-.16,.09-.25,.13-.09,.04-.19,.06-.3,.09-.11,.02-.21,.03-.32,.03-.2,0-.38-.03-.54-.1-.16-.07-.3-.17-.42-.3-.12-.13-.21-.29-.27-.48-.06-.19-.09-.41-.09-.65,0-.21,.03-.4,.09-.57s.14-.33,.26-.45c.11-.13,.25-.23,.41-.3,.16-.07,.34-.11,.55-.11,.16,0,.31,.03,.45,.08,.14,.06,.26,.14,.36,.25,.1,.11,.18,.24,.24,.4,.06,.16,.09,.34,.09,.54,0,.04,0,.07-.02,.09-.01,.01-.03,.02-.06,.02h-2.1Zm1.93-.18c0-.15-.02-.29-.07-.42-.04-.12-.1-.23-.18-.31-.08-.08-.17-.15-.28-.2s-.23-.07-.36-.07c-.15,0-.28,.02-.4,.07-.12,.05-.22,.11-.31,.2-.09,.09-.15,.19-.21,.31s-.09,.26-.1,.41h1.91Z"/><path class="cls-9" d="M23.41,67.91c.13-.17,.27-.3,.44-.4s.36-.15,.59-.15c.17,0,.33,.03,.47,.1s.25,.16,.35,.28c.1,.12,.17,.27,.22,.44s.08,.37,.08,.6c0,.23-.03,.45-.08,.64-.06,.19-.14,.36-.24,.49-.11,.14-.24,.24-.39,.32s-.33,.11-.53,.11-.38-.04-.52-.12c-.14-.08-.27-.19-.37-.35l-.02,.36s-.03,.07-.08,.07h-.17v-4.22h.28v1.84Zm0,1.75c.11,.17,.24,.28,.37,.35,.14,.07,.29,.1,.45,.1s.32-.03,.45-.09c.13-.06,.24-.15,.32-.26,.09-.11,.15-.25,.19-.42,.04-.16,.06-.35,.06-.55,0-.4-.08-.7-.24-.9s-.38-.3-.67-.3c-.2,0-.38,.05-.54,.15-.15,.1-.29,.24-.41,.41v1.52Z"/><path class="cls-9" d="M26.24,67.82c.15-.15,.31-.26,.48-.34s.35-.12,.57-.12c.15,0,.29,.02,.41,.07,.12,.05,.21,.12,.29,.21,.08,.09,.13,.2,.17,.33s.06,.28,.06,.44v1.88h-.11c-.06,0-.09-.03-.11-.08l-.04-.37c-.08,.08-.16,.15-.24,.21-.08,.06-.16,.11-.24,.16-.09,.04-.18,.08-.28,.1-.1,.02-.21,.04-.33,.04-.1,0-.19-.01-.29-.04-.09-.03-.18-.07-.25-.13-.07-.06-.13-.14-.17-.23-.04-.09-.06-.21-.06-.34,0-.12,.03-.23,.1-.34,.07-.1,.18-.2,.33-.27s.34-.14,.57-.19,.51-.07,.84-.08v-.3c0-.27-.06-.47-.17-.62-.11-.14-.29-.22-.51-.22-.14,0-.26,.02-.35,.06s-.18,.08-.25,.13c-.07,.05-.12,.09-.17,.13-.04,.04-.08,.06-.11,.06-.02,0-.04,0-.05-.01-.01-.01-.03-.02-.04-.04l-.05-.08Zm1.7,1.08c-.27,.01-.51,.03-.71,.06-.2,.03-.36,.08-.49,.14s-.22,.13-.29,.21c-.06,.08-.09,.17-.09,.27,0,.1,.02,.18,.05,.25s.07,.13,.13,.17,.11,.08,.18,.1c.07,.02,.14,.03,.22,.03,.11,0,.21-.01,.31-.04,.09-.02,.18-.06,.26-.1,.08-.04,.16-.1,.23-.16s.14-.13,.21-.19v-.75Zm-.98-2.33s0,.06-.02,.09c-.01,.03-.03,.05-.05,.07-.02,.02-.05,.04-.08,.05-.03,.01-.06,.02-.09,.02-.03,0-.06,0-.09-.02-.03-.01-.05-.03-.08-.05-.02-.02-.04-.05-.05-.07-.01-.03-.02-.06-.02-.09,0-.03,0-.06,.02-.09,.01-.03,.03-.05,.05-.08,.02-.02,.05-.04,.08-.05,.03-.01,.06-.02,.09-.02,.03,0,.06,0,.09,.02,.03,.01,.05,.03,.08,.05,.02,.02,.04,.05,.05,.08,.01,.03,.02,.06,.02,.09Zm1.02,0s0,.06-.02,.09c-.01,.03-.03,.05-.05,.07-.02,.02-.05,.04-.08,.05-.03,.01-.06,.02-.09,.02-.03,0-.06,0-.09-.02-.03-.01-.05-.03-.08-.05-.02-.02-.04-.05-.05-.07-.01-.03-.02-.06-.02-.09,0-.07,.02-.12,.07-.17,.05-.05,.1-.07,.17-.07,.03,0,.06,0,.09,.02,.03,.01,.05,.03,.08,.05,.02,.02,.04,.05,.05,.08,.01,.03,.02,.06,.02,.09Z"/><path class="cls-9" d="M29.89,70.34c-.2,0-.35-.05-.46-.16s-.16-.28-.16-.5v-1.97h-.41s-.04,0-.05-.02c-.01-.01-.02-.03-.02-.05v-.11l.49-.04,.07-1.03s.01-.03,.02-.05c.01-.01,.03-.02,.05-.02h.13v1.1h1.56l.07-1.04s.01-.03,.02-.05c.01-.01,.03-.02,.05-.02h.13v1.1h.91v.21h-.91v1.96c0,.08,.01,.15,.03,.2,.02,.06,.05,.1,.08,.14,.04,.04,.08,.06,.13,.08,.05,.02,.1,.03,.16,.03,.07,0,.13-.01,.18-.03,.05-.02,.09-.04,.13-.07,.04-.02,.07-.05,.09-.07,.02-.02,.04-.03,.06-.03,.01,0,.03,0,.05,.03l.08,.12c-.07,.08-.17,.15-.28,.2-.11,.05-.23,.07-.35,.07-.2,0-.35-.05-.46-.16s-.16-.28-.16-.5v-1.97h-1.56v1.96c0,.08,.01,.15,.03,.2s.05,.1,.08,.14c.04,.04,.08,.06,.13,.08,.05,.02,.1,.03,.16,.03,.07,0,.13-.01,.18-.03s.09-.04,.13-.07c.04-.02,.07-.05,.09-.07,.02-.02,.04-.03,.05-.03,.02,0,.03,0,.05,.03l.08,.12c-.07,.08-.17,.15-.28,.2-.11,.05-.23,.07-.35,.07Z"/><path class="cls-9" d="M33.19,68.11c.05-.12,.1-.22,.15-.32,.06-.09,.12-.17,.2-.23,.07-.06,.16-.11,.25-.15s.19-.05,.31-.05c.06,0,.12,0,.18,.02,.06,.01,.11,.03,.15,.06l-.02,.19s-.03,.05-.06,.05c-.02,0-.06,0-.11-.02s-.11-.02-.19-.02c-.11,0-.21,.02-.3,.05-.09,.03-.16,.09-.23,.15-.07,.07-.13,.15-.18,.25s-.1,.21-.14,.34v1.87h-.28v-2.89h.15s.06,0,.07,.02,.02,.04,.03,.07l.02,.61Z"/><path class="cls-9" d="M34.91,68.74v.06c0,.22,.03,.41,.08,.57,.05,.16,.12,.3,.21,.41,.09,.11,.2,.19,.34,.25,.13,.06,.28,.08,.44,.08,.14,0,.27-.02,.38-.05,.11-.03,.2-.07,.27-.11,.07-.04,.13-.08,.17-.11,.04-.03,.07-.05,.09-.05,.03,0,.04,.01,.06,.03l.08,.09c-.05,.06-.11,.11-.18,.16-.08,.05-.16,.09-.25,.13-.09,.04-.19,.06-.3,.09-.11,.02-.21,.03-.32,.03-.2,0-.38-.03-.54-.1-.16-.07-.3-.17-.42-.3-.12-.13-.21-.29-.27-.48-.06-.19-.09-.41-.09-.65,0-.21,.03-.4,.09-.57s.14-.33,.26-.45c.11-.13,.25-.23,.41-.3,.16-.07,.34-.11,.55-.11,.16,0,.31,.03,.45,.08,.14,.06,.26,.14,.36,.25,.1,.11,.18,.24,.24,.4,.06,.16,.09,.34,.09,.54,0,.04,0,.07-.02,.09-.01,.01-.03,.02-.06,.02h-2.1Zm1.93-.18c0-.15-.02-.29-.07-.42-.04-.12-.1-.23-.18-.31-.08-.08-.17-.15-.28-.2s-.23-.07-.36-.07c-.15,0-.28,.02-.4,.07-.12,.05-.22,.11-.31,.2-.09,.09-.15,.19-.21,.31s-.09,.26-.1,.41h1.91Z"/><path class="cls-9" d="M39.41,70.3v-2.89h.15s.08,.02,.08,.07l.03,.42c.11-.16,.24-.29,.39-.39,.14-.1,.31-.15,.49-.15,.21,0,.38,.06,.51,.18s.21,.29,.26,.51c.03-.12,.08-.22,.15-.31,.06-.09,.13-.16,.22-.22,.08-.06,.17-.1,.26-.13s.19-.04,.29-.04c.14,0,.27,.02,.39,.07,.11,.05,.21,.12,.29,.21,.08,.09,.14,.21,.18,.34,.04,.14,.06,.29,.06,.46v1.84h-.28v-1.84c0-.28-.06-.5-.18-.65s-.3-.22-.52-.22c-.1,0-.2,.02-.29,.05-.09,.04-.17,.09-.24,.16-.07,.07-.13,.16-.17,.27-.04,.11-.06,.23-.06,.38v1.84h-.28v-1.84c0-.28-.06-.5-.17-.64-.11-.15-.27-.22-.49-.22-.16,0-.3,.05-.44,.14-.13,.09-.25,.22-.36,.39v2.19h-.28Z"/><path class="cls-9" d="M44.18,68.74v.06c0,.22,.03,.41,.08,.57,.05,.16,.12,.3,.21,.41,.09,.11,.2,.19,.34,.25,.13,.06,.28,.08,.44,.08,.14,0,.27-.02,.38-.05,.11-.03,.2-.07,.27-.11,.07-.04,.13-.08,.17-.11,.04-.03,.07-.05,.09-.05,.03,0,.04,.01,.06,.03l.08,.09c-.05,.06-.11,.11-.18,.16-.08,.05-.16,.09-.25,.13-.09,.04-.19,.06-.3,.09-.11,.02-.21,.03-.32,.03-.2,0-.38-.03-.54-.1-.16-.07-.3-.17-.42-.3-.12-.13-.21-.29-.27-.48-.06-.19-.09-.41-.09-.65,0-.21,.03-.4,.09-.57s.14-.33,.26-.45c.11-.13,.25-.23,.41-.3,.16-.07,.34-.11,.55-.11,.16,0,.31,.03,.45,.08,.14,.06,.26,.14,.36,.25,.1,.11,.18,.24,.24,.4,.06,.16,.09,.34,.09,.54,0,.04,0,.07-.02,.09-.01,.01-.03,.02-.06,.02h-2.1Zm1.93-.18c0-.15-.02-.29-.07-.42-.04-.12-.1-.23-.18-.31-.08-.08-.17-.15-.28-.2s-.23-.07-.36-.07c-.15,0-.28,.02-.4,.07-.12,.05-.22,.11-.31,.2-.09,.09-.15,.19-.21,.31s-.09,.26-.1,.41h1.91Z"/><path class="cls-9" d="M49.35,66.08v4.22h-.15c-.05,0-.08-.03-.09-.08l-.03-.46c-.13,.17-.28,.31-.45,.42-.17,.1-.36,.15-.57,.15-.36,0-.63-.12-.83-.37-.2-.25-.3-.61-.3-1.11,0-.21,.03-.41,.08-.59,.06-.18,.14-.34,.24-.48,.11-.13,.24-.24,.39-.32s.33-.12,.54-.12,.36,.04,.51,.11,.27,.18,.37,.32v-1.71h.28Zm-.28,1.95c-.11-.17-.23-.28-.37-.35-.14-.07-.29-.1-.46-.1s-.32,.03-.45,.09c-.13,.06-.24,.15-.32,.26-.09,.11-.15,.25-.19,.41-.04,.16-.07,.33-.07,.52,0,.43,.08,.75,.24,.95,.16,.2,.39,.3,.68,.3,.19,0,.36-.05,.52-.15,.16-.1,.29-.24,.41-.42v-1.52Z"/><path class="cls-9" d="M53.02,67.36c.21,0,.39,.04,.56,.11s.3,.17,.41,.3c.11,.13,.2,.29,.26,.47s.09,.39,.09,.61-.03,.43-.09,.61-.14,.34-.26,.47c-.11,.13-.25,.23-.41,.3-.16,.07-.35,.1-.56,.1s-.39-.03-.55-.1c-.16-.07-.3-.17-.42-.3-.11-.13-.2-.29-.26-.47s-.09-.39-.09-.61,.03-.43,.09-.61,.15-.34,.26-.47c.11-.13,.25-.23,.42-.3s.35-.11,.55-.11Zm0,2.75c.17,0,.32-.03,.45-.09s.24-.14,.32-.25,.15-.24,.19-.4c.04-.16,.06-.33,.06-.52s-.02-.37-.06-.52c-.04-.16-.11-.29-.19-.4s-.19-.2-.32-.26c-.13-.06-.28-.09-.45-.09s-.32,.03-.45,.09c-.13,.06-.24,.15-.32,.26-.09,.11-.15,.25-.19,.4-.04,.16-.07,.33-.07,.52s.02,.37,.07,.52c.04,.16,.11,.29,.19,.4,.09,.11,.19,.19,.32,.25s.28,.09,.45,.09Z"/><path class="cls-9" d="M56.71,67.77s-.04,.04-.07,.04c-.02,0-.05-.01-.08-.04-.03-.02-.08-.05-.13-.08-.05-.03-.12-.06-.2-.08-.08-.03-.18-.04-.3-.04-.1,0-.2,.01-.29,.04-.09,.03-.16,.07-.22,.12-.06,.05-.11,.11-.14,.18-.03,.07-.05,.14-.05,.21,0,.09,.02,.17,.07,.23,.05,.06,.11,.11,.18,.15,.07,.04,.16,.08,.26,.11,.1,.03,.19,.06,.29,.09,.1,.03,.2,.07,.29,.1,.1,.04,.18,.08,.26,.14,.08,.06,.14,.13,.18,.21,.05,.08,.07,.18,.07,.3,0,.13-.02,.24-.07,.35-.04,.11-.11,.2-.2,.28s-.19,.14-.32,.19c-.13,.05-.27,.07-.43,.07-.2,0-.38-.03-.53-.1s-.28-.15-.39-.25l.06-.1s.02-.03,.03-.03c.01,0,.03-.01,.05-.01,.03,0,.06,.01,.09,.05,.04,.03,.08,.06,.14,.1,.06,.04,.13,.07,.22,.1,.09,.03,.2,.05,.33,.05,.12,0,.23-.02,.32-.05,.09-.03,.17-.08,.23-.14s.11-.13,.14-.2c.03-.08,.05-.16,.05-.25,0-.1-.02-.18-.07-.24-.05-.06-.11-.12-.18-.16s-.16-.08-.26-.11c-.1-.03-.19-.06-.29-.09-.1-.03-.2-.06-.29-.1-.1-.04-.18-.08-.26-.14-.08-.06-.14-.12-.18-.2-.05-.08-.07-.18-.07-.3,0-.1,.02-.2,.07-.3s.11-.18,.19-.25c.08-.07,.18-.13,.3-.17,.12-.04,.25-.06,.4-.06,.18,0,.33,.03,.47,.08,.14,.05,.26,.13,.37,.23l-.06,.1Z"/><path class="cls-9" d="M59.17,67.77s-.04,.04-.07,.04c-.02,0-.05-.01-.08-.04-.03-.02-.08-.05-.13-.08-.05-.03-.12-.06-.2-.08-.08-.03-.18-.04-.3-.04-.1,0-.2,.01-.29,.04-.09,.03-.16,.07-.22,.12-.06,.05-.11,.11-.14,.18-.03,.07-.05,.14-.05,.21,0,.09,.02,.17,.07,.23,.05,.06,.11,.11,.18,.15,.07,.04,.16,.08,.26,.11,.1,.03,.19,.06,.29,.09,.1,.03,.2,.07,.29,.1,.1,.04,.18,.08,.26,.14,.08,.06,.14,.13,.18,.21,.05,.08,.07,.18,.07,.3,0,.13-.02,.24-.07,.35-.04,.11-.11,.2-.2,.28s-.19,.14-.32,.19c-.13,.05-.27,.07-.43,.07-.2,0-.38-.03-.53-.1s-.28-.15-.39-.25l.06-.1s.02-.03,.03-.03c.01,0,.03-.01,.05-.01,.03,0,.06,.01,.09,.05,.04,.03,.08,.06,.14,.1,.06,.04,.13,.07,.22,.1,.09,.03,.2,.05,.33,.05,.12,0,.23-.02,.32-.05,.09-.03,.17-.08,.23-.14s.11-.13,.14-.2c.03-.08,.05-.16,.05-.25,0-.1-.02-.18-.07-.24-.05-.06-.11-.12-.18-.16s-.16-.08-.26-.11c-.1-.03-.19-.06-.29-.09-.1-.03-.2-.06-.29-.1-.1-.04-.18-.08-.26-.14-.08-.06-.14-.12-.18-.2-.05-.08-.07-.18-.07-.3,0-.1,.02-.2,.07-.3s.11-.18,.19-.25c.08-.07,.18-.13,.3-.17,.12-.04,.25-.06,.4-.06,.18,0,.33,.03,.47,.08,.14,.05,.26,.13,.37,.23l-.06,.1Z"/></g></g><g><g class="cls-11"><g class="cls-12"><g class="cls-12"><path class="cls-1" d="M43.08,29.72c.98,1.11,.54,.2,.37-.4-.04,0-.1,0-.15,0-.07,.13-.14,.27-.21,.4Z"/><path class="cls-1" d="M43.29,29.32c.05,0,.11,0,.15,0-.02-.08-.04-.14-.05-.2l-.1,.2Z"/><path class="cls-1" d="M42.59,29.14c.2,.23,.36,.42,.49,.58,.08-.13,.15-.26,.21-.4-.19,0-.42-.06-.7-.18Z"/><path class="cls-1" d="M43.39,29.12c.04-.08,.07-.14,.1-.22-.11-.03-.13,.07-.1,.22Z"/><path class="cls-8" d="M40.33,17.32c-1.7,.5-3.33,1.03-4.84,1.68,.85,.34,1.7,.68,2.34,.84,1.97,.52,1.98-1.33,2.51-2.51Z"/><path class="cls-5" d="M33.4,20.14c-.45,.27-.9,.53-1.33,.82,.61-.03,1.12-.22,1.33-.82Z"/><path class="cls-8" d="M40.47,17.6c-.5,1.21-.5,3.08-2.47,2.57-.63-.15-1.48-.48-2.33-.82-1.2,.5-2.31,1.12-3.35,1.76-.19,.62-.68,.84-1.25,.9-1.89,1.42-3.37,3.25-4.52,5.51-1.18,2.23-1.88,4.89-2.91,8.09-.07,.18-.25,.84-.51,1.54-.23,.61-.56,1.26-.67,1.51-.13,.24-.27,.46-.43,.68v.05c.4-.46,.77-.83,1.1-1.35,.2-.24,.36-.78,.53-1.09,.38-.73,.72-1.23,1.06-1.94,.33-.67,.62-1.36,.81-2.49,.01-.87,1.09-.03,1.16-.84,.64-2.15,2.57-1.66,3.37-3.46,.56-1.59,.43-3.3,1.69-3.87,.21-.23,.16-1.05,.37-1.28,1.73-1,3.66-1.82,5.98-2.26,.38-.28,2.14,1.05,2.15,.32-.2-1.21-.02-1.96,.19-2.67,.14-.08,1.21,.89,1.46,.7,1.17-.52,1.33-1.99,2.34-2.47-.13-.04-.25-.08-.36-.12-1.16,.36-2.32,.71-3.43,1.05Z"/><g><path class="cls-8" d="M47.22,15.26c-.09,.14-.18,.29-.27,.41,1.23-.15,2.09-.92,3-1.47-.87,.39-1.78,.75-2.73,1.06Z"/><path class="cls-8" d="M45.59,15.97l.06,.02c-.58,.18-1.17,.37-1.76,.56,.12,.04,.24,.08,.36,.12,.29-.16,.64-.24,1.07-.25,.12,0,.23,0,.34-.01,.06-.11,.11-.24,.16-.37l.12,.04c.5,.14,.77-.08,1.01-.4-.1,0-.21,.02-.32,.03-.4,.03-.74,.12-1.04,.27Z"/></g><path class="cls-3" d="M50.81,22.06c-.89,.69,.16,2.79-.64,3.65-.6,.61-.86,1.56-1.04,2.63,1.17-1.56,1.9-3.46,2.05-5.85-.11-.07-.23-.2-.36-.42Z"/><path class="cls-2" d="M50.19,15.14c-.04,.37-.09,.86-.34,1.36-.43,.85-1.31,1.05-1.76,1.69-1.68,1.31-.6,6.41-4.21,5.84-3.43-.72-3.79,2.64-5.49,4.57-.35,.36-.08,1.81-.44,2.18-1.21,1.2-2.31,2.26-3.46,3.23-.9,.76-2.52-1.46-3.16-.12-.12,.11-.89-.56-1-.44-.57,.77-1.23,1.41-1.88,2.07-.68,.59-1.36,1.18-2.07,1.69-1.43,1.03-2.82,1.85-4.42,2.61-.03,.13-.03,.22,0,.31,2.29-.28,4.76-.65,7.17-1.25,3.4-.59,5.68-3.45,8.87-4.85,1.52-.67,3.06-1.55,4.02-3.01-.13-.16-.29-.36-.49-.6,.28,.13,.52,.19,.72,.21l.11-.2c-.03-.16,0-.25,.11-.22-.04,.08-.07,.14-.11,.22,0,.06,.03,.13,.05,.21,1.54-.13,.55-3.51,1.62-3.36,3.53,.16,2.87-5.37,4.63-6.44,1.38-1.61,1.39-4.09,1.66-5.79-.04,.04-.08,.07-.12,.1Z"/><path class="cls-6" d="M49.54,14.67c-.09,0-.17,0-.24-.01-.71,1.14-1.69,2.9-3.14,3.99-.1,.12-.8-.17-1.3-.25-.89,.18,.15,2.03-.55,2.21-6.69,.85-8.74,7.15-12.33,11.95-.23,.22-1.49-2.33-2.08-2.43-1.04,.56-1.49,1.83-2.75,1.52-.29-.27,.1,1.38,0,2.1-.62,2.31-2.18,2.02-3.05,3.9-.56,1.01-1.28,1.34-2.09,2.03-.01,.05-.02,.09-.04,.13,1.6-.76,2.99-1.58,4.42-2.61,.71-.5,1.39-1.1,2.07-1.69,.65-.66,1.3-1.3,1.88-2.07,.11-.12,.87,.55,1,.44,.49-1.05,2.03,1.08,3.16,.12,1.17-.99,2.23-2.02,3.46-3.23,.36-.37,.09-1.82,.44-2.18,1.7-1.93,2.06-5.29,5.49-4.57,3.61,.57,2.53-4.53,4.21-5.84,.46-.64,1.34-.84,1.76-1.69,.26-.5,.3-.99,.34-1.36-.28,.18-.66,0-.93-.26,.07-.05,.17-.13,.27-.2Z"/><path class="cls-7" d="M50.4,14.45c-.53,.05-1.46,.02-.6,.09-.1,.08-.2,.16-.26,.21,.23,.23,.56,.36,.8,.14,.02-.17,.04-.32,.06-.44Z"/><path class="cls-7" d="M49.14,14.65c-.16,.07-.32,.14-.48,.22-.8,.69-1.69,1.46-2.99,1.54-.2,.37-.47,.61-1.02,.41-.14-.05-.26-.1-.39-.14-1.01,.48-1.17,1.95-2.34,2.47-.25,.2-1.32-.78-1.46-.7-.21,.7-.39,1.46-.19,2.67-.01,.73-1.78-.6-2.15-.32-2.32,.45-4.25,1.26-5.98,2.26-.21,.23-.16,1.05-.37,1.28-1.26,.58-1.13,2.28-1.69,3.87-.81,1.8-2.73,1.31-3.37,3.46-.07,.81-1.15-.03-1.16,.84-.2,1.13-.49,1.83-.81,2.49-.34,.71-.67,1.21-1.06,1.94-.17,.31-.33,.84-.53,1.09-.33,.52-.69,.89-1.1,1.35v.19s-.04,.12-.04,.12c.8-.7,1.53-1.02,2.09-2.03,.88-1.89,2.43-1.6,3.05-3.9,.1-.72-.28-2.37,0-2.1,1.26,.31,1.71-.96,2.75-1.52,.59,.1,1.86,2.65,2.08,2.43,3.59-4.8,5.64-11.1,12.33-11.95,.7-.18-.34-2.03,.55-2.21,.5,.08,1.2,.37,1.3,.25,1.46-1.09,2.44-2.85,3.14-3.99-.1,0-.17-.01-.17-.01Z"/><path class="cls-3" d="M40.88,36.35c.62-.5,1.21-1.02,1.88-1.53,.04-.04,.13-.12,.27-.23-.8,.47-1.66,.88-2.14,1.76Z"/><path class="cls-3" d="M44.07,33.73c.67-.58,1.4-1.28,1.76-1.68-.94-.21-1.73-.22-2.17,.34,0,0,.5,1.17,.41,1.34Z"/><g><path class="cls-4" d="M51.21,20.76c-.03-1.69-.28-3.53-.42-5.23-.03,1.53-.02,3.13,.42,5.23Z"/><path class="cls-3" d="M50.31,15.04c-.28,1.7-.28,4.17-1.66,5.79-1.76,1.08-1.1,6.6-4.63,6.44-1.07-.15-.08,3.23-1.62,3.36,.17,.61,.61,1.54-.38,.39-.96,1.47-2.5,2.35-4.02,3.01-3.19,1.4-5.47,4.26-8.87,4.85-2.41,.59-4.88,.97-7.17,1.25,.1,.22,.47,.72,1.41,1.14,.96,.48,1.83,.69,2.83,.93,.91,.16,1.82,.24,2.74,.25,.85-.03,1.7-.12,2.53-.29,.8-.19,1.53-.46,2.26-.81,.85-.94,1.64-1.8,2.81-2.12-.44,.42-.84,.91-1.21,1.46,1.26-.71,2.37-1.62,3.53-2.58-.05,0-.09,.02-.14,.02,.28-.21,.56-.43,.86-.65,.5-.85,1.44-1.19,2.26-1.62,.26-.19,.67-.48,1.1-.79,.12-.16,.93-1.82,1.88-1.56,.13-.13,.22-.22,.25-.27,1.2-1.1,2.37-2.07,3.37-3.16,.21-1.05,.53-1.97,1.23-2.49,1.02-.66,1.16-3.14,1.28-3.03,.07-.54,.11-1.11,.12-1.7-.44-2.17-.49-3.86-.33-5.33-.04-.47-.07-.93-.11-1.36-.05-.8-.1-1.16-.18-1.31-.05,.09-.1,.17-.15,.23Z"/></g></g></g></g><g class="cls-11"><g class="cls-12"><g class="cls-12"><path class="cls-1" d="M41.99,29.1c.98,1.11,.54,.2,.37-.4-.04,0-.1,0-.15,0-.07,.13-.14,.27-.21,.4Z"/><path class="cls-1" d="M42.21,28.7c.05,0,.11,0,.15,0-.02-.08-.04-.14-.05-.2l-.1,.2Z"/><path class="cls-1" d="M41.5,28.52c.2,.23,.36,.42,.49,.58,.08-.13,.15-.26,.21-.4-.19,0-.42-.06-.7-.18Z"/><path class="cls-1" d="M42.31,28.49c.04-.08,.07-.14,.1-.22-.11-.03-.13,.07-.1,.22Z"/><path class="cls-8" d="M39.24,16.69c-1.7,.5-3.33,1.03-4.84,1.68,.85,.34,1.7,.68,2.34,.84,1.97,.52,1.98-1.33,2.51-2.51Z"/><path class="cls-5" d="M32.31,19.51c-.45,.27-.9,.53-1.33,.82,.61-.03,1.12-.22,1.33-.82Z"/><path class="cls-8" d="M39.38,16.97c-.5,1.21-.5,3.08-2.47,2.57-.63-.15-1.48-.48-2.33-.82-1.2,.5-2.31,1.12-3.35,1.76-.19,.62-.68,.84-1.25,.9-1.89,1.42-3.37,3.25-4.52,5.51-1.18,2.23-1.88,4.89-2.91,8.09-.07,.18-.25,.84-.51,1.54-.23,.61-.56,1.26-.67,1.51-.13,.24-.27,.46-.43,.68v.05c.4-.46,.77-.83,1.1-1.35,.2-.24,.36-.78,.53-1.09,.38-.73,.72-1.23,1.06-1.94,.33-.67,.62-1.36,.81-2.49,.01-.87,1.09-.03,1.16-.84,.64-2.15,2.57-1.66,3.37-3.46,.56-1.59,.43-3.3,1.69-3.87,.21-.23,.16-1.05,.37-1.28,1.73-1,3.66-1.82,5.98-2.26,.38-.28,2.14,1.05,2.15,.32-.2-1.21-.02-1.96,.19-2.67,.14-.08,1.21,.89,1.46,.7,1.17-.52,1.33-1.99,2.34-2.47-.13-.04-.25-.08-.36-.12-1.16,.36-2.32,.71-3.43,1.05Z"/><g><path class="cls-8" d="M46.13,14.63c-.09,.14-.18,.29-.27,.41,1.23-.15,2.09-.92,3-1.47-.87,.39-1.78,.75-2.73,1.06Z"/><path class="cls-8" d="M44.51,15.34l.06,.02c-.58,.18-1.17,.37-1.76,.56,.12,.04,.24,.08,.36,.12,.29-.16,.64-.24,1.07-.25,.12,0,.23,0,.34-.01,.06-.11,.11-.24,.16-.37l.12,.04c.5,.14,.77-.08,1.01-.4-.1,0-.21,.02-.32,.03-.4,.03-.74,.12-1.04,.27Z"/></g><path class="cls-3" d="M49.72,21.44c-.89,.69,.16,2.79-.64,3.65-.6,.61-.86,1.56-1.04,2.63,1.17-1.56,1.9-3.46,2.05-5.85-.11-.07-.23-.2-.36-.42Z"/><path class="cls-2" d="M49.1,14.51c-.04,.37-.09,.86-.34,1.36-.43,.85-1.31,1.05-1.76,1.69-1.68,1.31-.6,6.41-4.21,5.84-3.43-.72-3.79,2.64-5.49,4.57-.35,.36-.08,1.81-.44,2.18-1.21,1.2-2.31,2.26-3.46,3.23-.9,.76-2.52-1.46-3.16-.12-.12,.11-.89-.56-1-.44-.57,.77-1.23,1.41-1.88,2.07-.68,.59-1.36,1.18-2.07,1.69-1.43,1.03-2.82,1.85-4.42,2.61-.03,.13-.03,.22,0,.31,2.29-.28,4.76-.65,7.17-1.25,3.4-.59,5.68-3.45,8.87-4.85,1.52-.67,3.06-1.55,4.02-3.01-.13-.16-.29-.36-.49-.6,.28,.13,.52,.19,.72,.21l.11-.2c-.03-.16,0-.25,.11-.22-.04,.08-.07,.14-.11,.22,0,.06,.03,.13,.05,.21,1.54-.13,.55-3.51,1.62-3.36,3.53,.16,2.87-5.37,4.62-6.45,1.38-1.61,1.39-4.09,1.66-5.79-.04,.04-.08,.07-.12,.1Z"/><path class="cls-6" d="M48.45,14.05c-.09,0-.17,0-.24-.01-.71,1.14-1.69,2.9-3.14,3.99-.1,.12-.8-.17-1.3-.25-.89,.18,.15,2.03-.55,2.21-6.69,.85-8.74,7.15-12.33,11.95-.23,.22-1.49-2.33-2.08-2.43-1.04,.56-1.49,1.83-2.75,1.52-.29-.27,.1,1.38,0,2.1-.62,2.31-2.18,2.02-3.05,3.9-.56,1.01-1.28,1.34-2.09,2.03-.01,.05-.02,.09-.04,.13,1.6-.76,2.99-1.58,4.42-2.61,.71-.5,1.39-1.1,2.07-1.69,.65-.66,1.3-1.3,1.88-2.07,.11-.12,.87,.55,1,.44,.49-1.05,2.03,1.08,3.16,.12,1.17-.99,2.23-2.02,3.46-3.23,.36-.37,.09-1.82,.44-2.18,1.7-1.94,2.06-5.29,5.49-4.57,3.61,.57,2.53-4.53,4.21-5.84,.46-.64,1.34-.84,1.76-1.69,.26-.5,.3-.99,.34-1.36-.28,.18-.66,0-.93-.26,.07-.05,.17-.13,.27-.2Z"/><path class="cls-7" d="M49.31,13.83c-.53,.05-1.46,.02-.6,.09-.1,.08-.2,.16-.26,.21,.23,.23,.56,.36,.8,.14,.02-.17,.04-.32,.06-.44Z"/><path class="cls-7" d="M48.05,14.02c-.16,.07-.32,.14-.48,.22-.8,.69-1.69,1.46-2.99,1.54-.2,.37-.47,.61-1.02,.41-.14-.05-.26-.1-.39-.14-1.01,.48-1.17,1.95-2.34,2.47-.25,.2-1.32-.78-1.46-.7-.21,.7-.39,1.46-.19,2.67-.01,.73-1.78-.6-2.15-.32-2.32,.45-4.25,1.26-5.98,2.26-.21,.23-.16,1.05-.37,1.28-1.27,.58-1.13,2.28-1.69,3.87-.81,1.8-2.73,1.31-3.37,3.46-.07,.81-1.15-.03-1.16,.84-.2,1.13-.49,1.83-.81,2.49-.34,.71-.67,1.21-1.06,1.94-.17,.31-.33,.84-.53,1.09-.33,.52-.69,.89-1.1,1.35v.19s-.04,.12-.04,.12c.8-.7,1.53-1.02,2.09-2.03,.88-1.89,2.43-1.6,3.05-3.9,.1-.72-.28-2.37,0-2.1,1.26,.31,1.71-.96,2.75-1.52,.59,.1,1.86,2.65,2.08,2.43,3.59-4.8,5.64-11.1,12.33-11.95,.7-.18-.34-2.03,.55-2.21,.5,.08,1.2,.37,1.3,.25,1.46-1.09,2.44-2.85,3.14-3.99-.1,0-.17-.01-.17-.01Z"/><path class="cls-3" d="M39.79,35.72c.62-.5,1.21-1.02,1.88-1.53,.04-.04,.13-.12,.27-.23-.8,.47-1.66,.88-2.14,1.76Z"/><path class="cls-3" d="M42.98,33.11c.67-.58,1.4-1.28,1.76-1.68-.94-.21-1.73-.22-2.17,.34,0,0,.5,1.17,.41,1.34Z"/><g><path class="cls-4" d="M50.12,20.13c-.03-1.68-.28-3.53-.42-5.23-.03,1.53-.02,3.13,.42,5.23Z"/><path class="cls-3" d="M49.22,14.41c-.28,1.7-.28,4.17-1.66,5.79-1.76,1.08-1.1,6.6-4.62,6.45-1.07-.15-.08,3.23-1.62,3.36,.17,.61,.61,1.54-.38,.39-.96,1.47-2.5,2.35-4.02,3.01-3.19,1.4-5.47,4.26-8.87,4.85-2.41,.59-4.88,.97-7.17,1.25,.1,.22,.47,.72,1.41,1.14,.96,.48,1.83,.69,2.83,.93,.91,.16,1.82,.24,2.74,.25,.85-.03,1.7-.12,2.53-.29,.8-.19,1.53-.46,2.26-.81,.85-.94,1.64-1.8,2.81-2.12-.44,.42-.84,.91-1.21,1.46,1.26-.71,2.37-1.62,3.53-2.58-.05,0-.09,.02-.14,.02,.28-.21,.56-.43,.86-.65,.5-.85,1.44-1.19,2.26-1.62,.26-.19,.67-.48,1.1-.79,.12-.16,.93-1.82,1.88-1.56,.13-.13,.22-.22,.25-.27,1.2-1.1,2.37-2.07,3.37-3.16,.21-1.05,.53-1.97,1.23-2.49,1.03-.66,1.16-3.14,1.28-3.03,.07-.54,.11-1.11,.12-1.7-.44-2.17-.49-3.86-.33-5.33-.04-.47-.07-.93-.11-1.36-.05-.8-.1-1.16-.18-1.31-.05,.09-.1,.17-.15,.23Z"/></g></g></g></g><g><path class="cls-10" d="M32.55,42.16c-.46,0-.93-.06-1.41-.2-1.42-.42-2.79-1.19-4-1.87-1.58-.89-2.94-1.65-3.9-1.4-.15,.04-.31-.02-.4-.16-.08-.13-.07-.3,.02-.42,.01-.02,1.42-1.77,1.2-3.94-.05-.46-.15-.91-.26-1.39-.45-1.97-.96-4.21,1.77-8.37,.08-.13,.23-.19,.38-.15,.06,.01,1.11,.28,1.62,1.8,.66-2.18,2.24-5.57,5.87-7.7,.13-.08,.29-.07,.41,.03,.12,.09,.17,.25,.12,.39,0,.02-.45,1.51-.59,2.79,1.18-1.48,3.65-4.47,5.36-5.81,.1-.08,.23-.1,.35-.06,.12,.04,.2,.14,.23,.27,0,.03,.55,2.67,1.23,4.05,.94-.93,3.64-3.71,5.16-6.59,.07-.13,.19-.2,.34-.19,.14,.01,.27,.1,.32,.24,.09,.25,2.13,5.96-.52,10.57,1.18-.36,3.26-1.17,4.4-2.58,.11-.13,.29-.17,.44-.1,.15,.07,.23,.23,.2,.4-.02,.09-1.66,8.05-8.18,10.02,1.13,.17,2.42,.26,3.05-.02,.13-.06,.29-.03,.39,.07,.11,.1,.14,.25,.09,.39-.02,.06-2.23,5.84-10.97,5.84-.11,0-.22,0-.33,0,1.07,.5,2.28,1.01,2.83,1.04,.14,0,.27,.1,.32,.24,.05,.13,.02,.29-.09,.39-.12,.12-2.59,2.46-5.46,2.46Zm-8.68-4.23c1.06,.09,2.28,.77,3.63,1.53,1.17,.66,2.5,1.4,3.85,1.8,2.26,.67,4.59-.83,5.61-1.63-1.43-.43-3.64-1.59-3.93-1.74-.15-.08-.23-.26-.18-.42,.05-.17,.2-.27,.38-.26,7.98,.78,11.07-3.03,12-4.61-1.66,.2-4.16-.4-4.48-.48-.17-.04-.29-.2-.27-.38,.01-.17,.15-.32,.32-.34,5.78-.63,8.21-6.04,9.02-8.55-1.92,1.52-4.59,2.08-4.72,2.11-.15,.03-.3-.03-.38-.16-.08-.13-.08-.29,.01-.41,2.52-3.47,1.67-8.08,1.19-9.9-1.97,3.33-5.08,6.23-5.22,6.36-.08,.07-.19,.11-.29,.09-.11-.01-.2-.07-.26-.16-.64-.99-1.18-3.08-1.41-4.11-2.22,1.95-5.43,6.12-5.46,6.17-.09,.12-.24,.17-.39,.13-.14-.04-.25-.16-.26-.31-.09-.93,.18-2.3,.4-3.21-4.56,3.2-5.2,8.67-5.2,8.73-.02,.19-.15,.32-.38,.32-.19-.01-.34-.18-.34-.37,.06-2.13-.7-2.86-1.1-3.1-2.37,3.74-1.91,5.77-1.5,7.56,.11,.5,.22,.98,.27,1.48,.17,1.65-.46,3.06-.92,3.83Z"/><path class="cls-10" d="M45.46,25.87c-2.62,.72-4.34,.17-5.04-.17,1.17-1.22,2.28-2.49,3.36-3.8,.12-.15,.1-.37-.05-.49-.15-.12-.37-.11-.5,.04h0c-1.93,2.32-3.98,4.52-6.26,6.49-.11,.09-.23,.18-.34,.28-.31-2.65,.54-4.62,.55-4.64,.08-.18,0-.4-.18-.48-.18-.08-.4,0-.48,.18-.04,.1-1.05,2.39-.55,5.48-1.58,1.33-3.21,2.59-4.9,3.77-.35-1.03-.94-3.37,.17-4.97,.11-.16,.07-.39-.09-.5-.16-.12-.39-.07-.5,.09-1.4,2.02-.55,4.82-.18,5.82-.22,.15-.43,.32-.66,.47-2.5,1.68-5.09,3.23-7.75,4.64-2.66,1.4-5.4,2.7-8.17,3.79h-.02s0,0,0,0c-.28,.11-.41,.43-.3,.71,.11,.28,.43,.41,.71,.3,2.85-1.15,5.58-2.48,8.26-3.93,2.67-1.46,5.27-3.05,7.78-4.77,1.11-.75,2.19-1.56,3.25-2.38,.03,.04,.04,.08,.07,.12,.71,.9,2.58,1.46,5.57,1.66,0,0,.02,0,.02,0,.19,0,.35-.15,.36-.34,.01-.2-.14-.37-.34-.39-4.01-.27-4.91-1.14-5.11-1.49,1.14-.91,2.26-1.85,3.36-2.81,.83-.73,1.62-1.5,2.39-2.29,.46,.25,1.5,.71,3.09,.71,.77,0,1.66-.1,2.67-.39,.19-.05,.31-.25,.25-.44-.05-.19-.25-.31-.44-.25Z"/><path class="cls-10" d="M37.91,51.12c-5.69,0-11.19-2.03-15.51-5.72-.2-.17-.22-.47-.05-.67,.17-.2,.47-.23,.67-.05,4.14,3.54,9.43,5.49,14.89,5.49,12.64,0,22.93-10.29,22.93-22.93S50.55,4.31,37.91,4.31,14.98,14.59,14.98,27.24c0,2.8,.5,5.54,1.48,8.13,.09,.25-.03,.52-.28,.62-.25,.09-.52-.03-.62-.28-1.02-2.7-1.54-5.55-1.54-8.47C14.02,14.07,24.74,3.35,37.91,3.35s23.88,10.71,23.88,23.88-10.71,23.88-23.88,23.88Z"/></g></g></g></g></svg>