<svg width="18" height="16" viewBox="0 0 18 16" fill="none" xmlns="http://www.w3.org/2000/svg">
<path d="M3.1844 15.4378C3.24909 15.6643 3.45602 15.8203 3.69146 15.8203H14.3086C14.5441 15.8203 14.751 15.6643 14.8157 15.4378L16.8158 8.4375H1.18433L3.1844 15.4378ZM11.4154 13.0969L11.9428 9.93287C11.9907 9.64557 12.2623 9.45137 12.5496 9.49939C12.8369 9.54728 13.031 9.81897 12.9831 10.1063L12.4558 13.2703C12.4128 13.5283 12.1894 13.7111 11.9362 13.7111C11.9074 13.7111 11.8783 13.7087 11.8489 13.7038C11.5616 13.6559 11.3675 13.3842 11.4154 13.0969ZM8.47271 10.0195C8.47271 9.7283 8.70882 9.49219 9.00005 9.49219C9.29129 9.49219 9.52739 9.7283 9.52739 10.0195V13.1836C9.52739 13.4748 9.29129 13.7109 9.00005 13.7109C8.70882 13.7109 8.47271 13.4748 8.47271 13.1836V10.0195ZM5.48562 9.49939C5.77295 9.45155 6.04461 9.64557 6.09249 9.93287L6.61983 13.0969C6.66772 13.3842 6.47365 13.6559 6.18636 13.7038C6.15704 13.7087 6.12782 13.7111 6.09903 13.7111C5.84587 13.7111 5.62249 13.5283 5.57949 13.2703L5.05215 10.1063C5.00426 9.81897 5.19833 9.54724 5.48562 9.49939Z" fill="#222222"/>
<path d="M17.4727 5.27343H15.6167L11.5563 0.197924C11.3744 -0.0294318 11.0426 -0.0663812 10.8151 0.115588C10.5877 0.297521 10.5508 0.629361 10.7328 0.856787L14.2661 5.27343H3.73391L7.26725 0.856787C7.44919 0.629361 7.41231 0.297486 7.18492 0.115588C6.95746 -0.0663812 6.62562 -0.029467 6.44372 0.197924L2.38328 5.27343H0.527344C0.236109 5.27343 0 5.50954 0 5.80078V6.85547C0 7.1467 0.236109 7.38281 0.527344 7.38281H17.4727C17.7639 7.38281 18 7.1467 18 6.85547V5.80078C18 5.50954 17.7639 5.27343 17.4727 5.27343Z" fill="#222222"/>
</svg>
