<svg width="10" height="16" viewBox="0 0 10 16" fill="none" xmlns="http://www.w3.org/2000/svg">
<g clip-path="url(#clip0_124_199)">
<path d="M8.99947 0.00332907L6.92463 0C4.59362 0 3.08721 1.54552 3.08721 3.93762V5.75313H1.00105C0.820784 5.75313 0.674805 5.89927 0.674805 6.07954V8.71001C0.674805 8.89028 0.820951 9.03625 1.00105 9.03625H3.08721V15.6738C3.08721 15.854 3.23319 16 3.41346 16H6.13531C6.31558 16 6.46156 15.8539 6.46156 15.6738V9.03625H8.90077C9.08103 9.03625 9.22701 8.89028 9.22701 8.71001L9.22801 6.07954C9.22801 5.99299 9.19356 5.91009 9.13247 5.84884C9.07138 5.78758 8.98815 5.75313 8.9016 5.75313H6.46156V4.2141C6.46156 3.47438 6.63783 3.09886 7.60143 3.09886L8.99914 3.09836C9.17924 3.09836 9.32522 2.95222 9.32522 2.77211V0.329578C9.32522 0.149642 9.17941 0.00366197 8.99947 0.00332907Z" fill="#222222"/>
</g>
<defs>
<clipPath id="clip0_124_199">
<rect width="10" height="16" fill="white"/>
</clipPath>
</defs>
</svg>
