<svg width="18" height="16" viewBox="0 0 18 16" fill="none" xmlns="http://www.w3.org/2000/svg">
<path d="M3.18434 15.5277C3.24903 15.7541 3.45596 15.9102 3.6914 15.9102H14.3086C14.544 15.9102 14.751 15.7541 14.8156 15.5277L16.8157 8.52734H1.18427L3.18434 15.5277ZM11.4154 13.1868L11.9427 10.0227C11.9906 9.73542 12.2623 9.54121 12.5496 9.58924C12.8369 9.63712 13.0309 9.90881 12.9831 10.1961L12.4557 13.3602C12.4127 13.6181 12.1893 13.8009 11.9362 13.8009C11.9074 13.8009 11.8782 13.7986 11.8488 13.7936C11.5615 13.7458 11.3675 13.474 11.4154 13.1868ZM8.47265 10.1094C8.47265 9.81814 8.70876 9.58203 8.99999 9.58203C9.29122 9.58203 9.52733 9.81814 9.52733 10.1094V13.2734C9.52733 13.5647 9.29122 13.8008 8.99999 13.8008C8.70876 13.8008 8.47265 13.5647 8.47265 13.2734V10.1094ZM5.48556 9.58924C5.77289 9.54139 6.04455 9.73542 6.09243 10.0227L6.61977 13.1868C6.66765 13.474 6.47359 13.7458 6.1863 13.7936C6.15697 13.7985 6.12776 13.8009 6.09897 13.8009C5.84581 13.8009 5.62242 13.6181 5.57943 13.3602L5.05208 10.1961C5.0042 9.90881 5.19826 9.63709 5.48556 9.58924Z" fill="white"/>
<path d="M17.4727 5.36328H15.6167L11.5563 0.287768C11.3744 0.0604119 11.0426 0.0234626 10.8151 0.205431C10.5877 0.387365 10.5508 0.719205 10.7328 0.946631L14.2661 5.36328H3.73391L7.26725 0.946631C7.44919 0.719205 7.41231 0.38733 7.18492 0.205431C6.95746 0.0234626 6.62562 0.0603768 6.44372 0.287768L2.38328 5.36328H0.527344C0.236109 5.36328 0 5.59939 0 5.89062V6.94531C0 7.23655 0.236109 7.47266 0.527344 7.47266H17.4727C17.7639 7.47266 18 7.23655 18 6.94531V5.89062C18 5.59939 17.7639 5.36328 17.4727 5.36328Z" fill="white"/>
</svg>
