<svg width="70" height="70" viewBox="0 0 70 70" fill="none" xmlns="http://www.w3.org/2000/svg">
<path d="M28.8256 57.6512C12.9311 57.6512 0 44.7201 0 28.8256C0 12.9311 12.9311 0 28.8256 0C44.7201 0 57.6512 12.9311 57.6512 28.8256C57.6512 44.7201 44.7201 57.6512 28.8256 57.6512V57.6512ZM28.8256 5.46457C15.9442 5.46457 5.46457 15.9442 5.46457 28.8256C5.46457 41.7069 15.9442 52.1866 28.8256 52.1866C41.7069 52.1866 52.1866 41.7069 52.1866 28.8256C52.1866 15.9442 41.7069 5.46457 28.8256 5.46457V5.46457ZM69.1463 69.1997C70.2133 68.1326 70.2133 66.4025 69.1463 65.3356L56.9193 53.1086C55.8522 52.0415 54.1222 52.0415 53.0552 53.1086C51.9882 54.1757 51.9882 55.9058 53.0552 56.9727L65.2822 69.1997C65.8156 69.7332 66.515 69.9999 67.2143 69.9999C67.9136 69.9999 68.6127 69.7332 69.1463 69.1997V69.1997Z" fill="white"/>
</svg>
