<svg width="16" height="14" viewBox="0 0 16 14" fill="none" xmlns="http://www.w3.org/2000/svg">
<path d="M15.6374 1.96199C15.3861 2.07347 15.1276 2.16756 14.8636 2.24395C15.1762 1.8904 15.4145 1.4744 15.56 1.01918C15.5927 0.917137 15.5589 0.805447 15.475 0.738711C15.3912 0.671924 15.2748 0.663924 15.1826 0.718582C14.6218 1.05118 14.0168 1.2902 13.3824 1.42996C12.7434 0.80555 11.8755 0.450195 10.9783 0.450195C9.08434 0.450195 7.54349 1.991 7.54349 3.88488C7.54349 4.03404 7.55293 4.18238 7.57162 4.32865C5.22143 4.1223 3.0365 2.96715 1.53611 1.12669C1.48264 1.06109 1.40027 1.02573 1.31593 1.03249C1.23155 1.0391 1.15573 1.08669 1.11309 1.15982C0.808784 1.68199 0.647907 2.2792 0.647907 2.88684C0.647907 3.71445 0.943391 4.49969 1.46535 5.11327C1.30664 5.0583 1.15263 4.9896 1.00564 4.908C0.92672 4.86408 0.83041 4.86475 0.75201 4.90971C0.673559 4.95466 0.624372 5.03734 0.622307 5.12772C0.621946 5.14294 0.621946 5.15817 0.621946 5.1736C0.621946 6.40896 1.28682 7.52116 2.30334 8.12736C2.21601 8.11863 2.12873 8.10599 2.04202 8.08942C1.95263 8.07234 1.86071 8.10367 1.80042 8.17185C1.74004 8.23998 1.72006 8.33494 1.74788 8.42165C2.12414 9.59636 3.09286 10.4604 4.26396 10.7238C3.29265 11.3322 2.18189 11.6509 1.01586 11.6509C0.772552 11.6509 0.527856 11.6366 0.288372 11.6082C0.169404 11.5941 0.0556496 11.6643 0.0151335 11.7775C-0.0253826 11.8907 0.0175593 12.0169 0.118772 12.0817C1.61673 13.0422 3.34881 13.5499 5.12765 13.5499C8.62462 13.5499 10.8122 11.9008 12.0316 10.5174C13.5521 8.79249 14.4242 6.50929 14.4242 4.25334C14.4242 4.1591 14.4227 4.06392 14.4198 3.96906C15.0197 3.51709 15.5362 2.97009 15.9565 2.3414C16.0203 2.24591 16.0134 2.11972 15.9395 2.03182C15.8656 1.94387 15.7425 1.91543 15.6374 1.96199Z" fill="#222222"/>
</svg>
